<svg xmlns="http://www.w3.org/2000/svg" width="478.314453125" height="204.31871032714844" viewBox="-117.29084777832031 -48.741607666015625 478.314453125 204.31871032714844"><title>Neo4j Graph Visualization</title><desc>Created using Neo4j (http://www.neo4j.com/)</desc><g class="layer relationships"><g class="relationship" transform="translate(198.38345399928534 118.29373169733765) rotate(359.2376732997219)"><path class="outline" fill="#C990C0" stroke="none" d="M 21.40063509461097,12.933012701892217 L 21.90063509461097,12.06698729810778 A 86.86535356246038 86.86535356246038 0 0 0 37.89339453054612,19.25686183241973 L 37.577504290997794,20.205657572586233 A 87.86535356246038 87.86535356246038 0 0 1 21.40063509461097,12.933012701892217 Z M 88.88008264658232,21.490845956516196 L 88.61209566632164,20.52742342283186 A 86.86535356246038 86.86535356246038 0 0 0 104.94479813230292,14.147338756264265 L 103.57676756665354,11.477415092290132 L 111.40262510918413,11.400254713744758 L 106.76883888650208,17.707236974896446 L 105.4008083208527,15.037313310922311 A 87.86535356246038 87.86535356246038 0 0 1 88.88008264658232,21.490845956516196"/><text text-anchor="middle" pointer-events="none" font-size="8px" fill="#000000" x="63.1453960591328" y="27.17733736561405" font-family="sans-serif">PRODUCED</text></g><g class="relationship" transform="translate(198.38345399928534 118.29373169733765) rotate(359.2376732997219)"><path class="outline" fill="#604A0E" stroke="none" d="M 25 0.5 L 39.880681987817624 0.5 L 39.880681987817624 -0.5 L 25 -0.5 Z M 86.77130698781762 0.5 L 101.65198897563525 0.5 L 101.65198897563525 3.5 L 108.65198897563525 0 L 101.65198897563525 -3.5 L 101.65198897563525 -0.5 L 86.77130698781762 -0.5 Z"/><text text-anchor="middle" pointer-events="none" font-size="8px" fill="#000000" x="63.325994487817624" y="3" font-family="sans-serif">DIRECTED</text></g><g class="relationship" transform="translate(198.38345399928534 118.29373169733765) rotate(359.2376732997219)"><path class="outline" fill="#A5ABB6" stroke="none" d="M 21.40063509461097,-12.933012701892217 L 21.90063509461097,-12.06698729810778 A 86.86535356246038 86.86535356246038 0 0 1 45.54852058271484,-21.42160288441957 L 45.320756687424876,-22.39531927434136 A 87.86535356246038 87.86535356246038 0 0 0 21.40063509461097,-12.933012701892217 Z M 81.0369045989354,-23.290049712574813 L 80.85818122178615,-22.306150350617315 A 86.86535356246038 86.86535356246038 0 0 1 104.94479813230292,-14.147338756264265 L 103.57676756665354,-11.477415092290132 L 111.40262510918413,-11.400254713744758 L 106.76883888650208,-17.707236974896446 L 105.4008083208527,-15.037313310922311 A 87.86535356246038 87.86535356246038 0 0 0 81.0369045989354,-23.290049712574813"/><text text-anchor="middle" pointer-events="none" font-size="8px" fill="#000000" x="63.14539605913282" y="-21.17733736561405" font-family="sans-serif">WROTE</text></g><g class="relationship" transform="translate(313.1616011078202 -8.953438710067395) rotate(183.31997562295146)"><path class="outline" fill="#604A0E" stroke="none" d="M 24.018736134675446,6.953439040707552 L 24.277555179777966,5.987513214418485 A 148.72858303383424 148.72858303383424 0 0 0 37.53737311543644,8.899030158753561 L 37.36770853994009,9.884532026748587 A 149.72858303383424 149.72858303383424 0 0 1 24.018736134675446,6.953439040707552 Z M 84.21793780999704,10.511389623686341 L 84.07470134602072,9.521701129569351 A 148.72858303383424 148.72858303383424 0 0 0 97.40767088413655,6.96599654968606 L 96.70902254450547,4.048482111413177 L 104.33164596337846,5.822069496925681 L 98.33920200364466,10.85601580071657 L 97.64055366401358,7.938501362443687 A 149.72858303383424 149.72858303383424 0 0 1 84.21793780999704,10.511389623686341"/><text text-anchor="middle" pointer-events="none" font-size="8px" fill="#000000" x="60.77484041226649" y="14.541960737823587" transform="rotate(180 60.77484041226649 11.541960737823587)" font-family="sans-serif">DIRECTED</text></g><g class="relationship" transform="translate(313.1616011078202 -8.953438710067395) rotate(183.31997562295146)"><path class="outline" fill="#A5ABB6" stroke="none" d="M 24.018736134675446,-6.953439040707552 L 24.277555179777966,-5.987513214418485 A 148.72858303383424 148.72858303383424 0 0 1 43.013264551727,-9.737078260937835 L 42.8804179928122,-10.728214877043058 A 149.72858303383424 149.72858303383424 0 0 0 24.018736134675446,-6.953439040707552 Z M 78.68462886543621,-11.207276387254495 L 78.57834799692766,-10.212940238364666 A 148.72858303383424 148.72858303383424 0 0 1 97.40767088413655,-6.96599654968606 L 96.70902254450547,-4.048482111413177 L 104.33164596337846,-5.822069496925681 L 98.33920200364466,-10.85601580071657 L 97.64055366401358,-7.938501362443687 A 149.72858303383424 149.72858303383424 0 0 0 78.68462886543621,-11.207276387254495"/><text text-anchor="middle" pointer-events="none" font-size="8px" fill="#000000" x="60.774840412266514" y="-8.541960737823587" transform="rotate(180 60.774840412266514 -11.541960737823587)" font-family="sans-serif">WROTE</text></g><g class="relationship" transform="translate(54.77205466430496 -19.741607646402578) rotate(361.47134420225944)"><path class="outline" fill="#604A0E" stroke="none" d="M 24.018736134675446,6.953439040707552 L 24.277555179777966,5.987513214418485 A 151.41815265546387 151.41815265546387 0 0 0 38.212177953953905,9.025921629721608 L 38.0453863344262,10.011913797872694 A 152.41815265546387 152.41815265546387 0 0 1 24.018736134675446,6.953439040707552 Z M 84.89970391377153,10.632593060684115 L 84.75908912032915,9.642528679007285 A 151.41815265546387 151.41815265546387 0 0 0 98.76930765564215,6.97430564681181 L 98.0698832436686,4.056977161375954 L 105.6929781903214,5.828536766446186 L 99.70187353827355,10.864076960726283 L 99.0024491263,7.946748475290428 A 152.41815265546387 152.41815265546387 0 0 1 84.89970391377153,10.632593060684115"/><text text-anchor="middle" pointer-events="none" font-size="8px" fill="#000000" x="61.4551732640664" y="14.63363387272696" font-family="sans-serif">DIRECTED</text></g><g class="relationship" transform="translate(54.77205466430496 -19.741607646402578) rotate(361.47134420225944)"><path class="outline" fill="#A5ABB6" stroke="none" d="M 24.018736134675446,-6.953439040707552 L 24.277555179777966,-5.987513214418485 A 151.41815265546387 151.41815265546387 0 0 1 43.69055441124497,-9.849863758260767 L 43.559943238785294,-10.841297428068657 A 152.41815265546387 152.41815265546387 0 0 0 24.018736134675446,-6.953439040707552 Z M 79.36511225391538,-11.315608592061494 L 79.26080935353448,-10.321063014939881 A 151.41815265546387 151.41815265546387 0 0 1 98.76930765564215,-6.97430564681181 L 98.0698832436686,-4.056977161375954 L 105.6929781903214,-5.828536766446186 L 99.70187353827355,-10.864076960726283 L 99.0024491263,-7.946748475290428 A 152.41815265546387 152.41815265546387 0 0 0 79.36511225391538,-11.315608592061494"/><text text-anchor="middle" pointer-events="none" font-size="8px" fill="#000000" x="61.45517326406639" y="-8.63363387272696" font-family="sans-serif">WROTE</text></g><g class="relationship" transform="translate(-88.29084963350002 120.94512149338954) rotate(358.1642683910161)"><path class="outline" fill="#A5ABB6" stroke="none" d="M 21.40063509461097,12.933012701892217 L 21.90063509461097,12.06698729810778 A 109.33776789201745 109.33776789201745 0 0 0 56.51312375595332,24.860205918237185 L 56.32968855628404,25.84323772215926 A 110.33776789201745 110.33776789201745 0 0 1 21.40063509461097,12.933012701892217 Z M 92.0989790572229,26.61715938707313 L 91.95823432118836,25.627113469310444 A 109.33776789201745 109.33776789201745 0 0 0 127.09167283217056,14.342951453945098 L 125.7054504471998,11.682427539486527 L 133.53059903006903,11.551853208089735 L 128.93996934546493,17.890316673223193 L 127.55374696049415,15.22979275876462 A 110.33776789201745 110.33776789201745 0 0 1 92.0989790572229,26.61715938707313"/><text text-anchor="middle" pointer-events="none" font-size="8px" fill="#000000" x="74.19357205408683" y="30.18977004112348" font-family="sans-serif">WROTE</text></g><g class="relationship" transform="translate(-88.29084963350002 120.94512149338954) rotate(358.1642683910161)"><path class="outline" fill="#604A0E" stroke="none" d="M 25 0.5 L 50.90550332527856 0.5 L 50.90550332527856 -0.5 L 25 -0.5 Z M 97.79612832527856 0.5 L 123.70163165055712 0.5 L 123.70163165055712 3.5 L 130.70163165055712 0 L 123.70163165055712 -3.5 L 123.70163165055712 -0.5 L 97.79612832527856 -0.5 Z"/><text text-anchor="middle" pointer-events="none" font-size="8px" fill="#000000" x="74.35081582527856" y="3" font-family="sans-serif">DIRECTED</text></g><g class="relationship" transform="translate(-88.29084963350002 120.94512149338954) rotate(358.1642683910161)"><path class="outline" fill="#C990C0" stroke="none" d="M 21.40063509461097,-12.933012701892217 L 21.90063509461097,-12.06698729810778 A 109.33776789201745 109.33776789201745 0 0 1 48.741002982402065,-23.114740599848048 L 48.486484195392435,-24.0818084294542 A 110.33776789201745 110.33776789201745 0 0 0 21.40063509461097,-12.933012701892217 Z M 100.0110300652924,-25.196618417718213 L 99.79857777925727,-24.219446976179697 A 109.33776789201745 109.33776789201745 0 0 1 127.09167283217056,-14.342951453945098 L 125.7054504471998,-11.682427539486527 L 133.53059903006903,-11.551853208089735 L 128.93996934546493,-17.890316673223193 L 127.55374696049415,-15.22979275876462 A 110.33776789201745 110.33776789201745 0 0 0 100.0110300652924,-25.196618417718213"/><text text-anchor="middle" pointer-events="none" font-size="8px" fill="#000000" x="74.19357205408686" y="-24.18977004112348" font-family="sans-serif">PRODUCED</text></g></g><g class="layer nodes"><g class="node" transform="translate(198.38345399928534,118.29373169733765)"><circle class="outline" cx="0" cy="0" r="25" fill="#F79767" stroke="#f36924" stroke-width="2px"/><text text-anchor="middle" pointer-events="none" font-family="sans-serif" dy="1.5625" font-size="25" fill="#FFFFFF"/><text text-anchor="middle" pointer-events="none" font-family="sans-serif" dy="1.5625" font-size="25" fill="#FFFFFF"/><text text-anchor="middle" pointer-events="none" x="0" y="0" font-size="10px" fill="#FFFFFF" font-family="sans-serif"> Cameron</text><text text-anchor="middle" pointer-events="none" x="0" y="10" font-size="10px" fill="#FFFFFF" font-family="sans-serif"> Crowe</text></g><g class="node" transform="translate(332.02361321254386,116.51552962832679)"><circle class="outline" cx="0" cy="0" r="25" fill="#57C7E3" stroke="#23b3d7" stroke-width="2px"/><text text-anchor="middle" pointer-events="none" font-family="sans-serif" dy="1.5625" font-size="25" fill="#2A2C34"/><text text-anchor="middle" pointer-events="none" font-family="sans-serif" dy="1.5625" font-size="25" fill="#2A2C34"/><text text-anchor="middle" pointer-events="none" x="0" y="0" font-size="10px" fill="#2A2C34" font-family="sans-serif"> Jerry</text><text text-anchor="middle" pointer-events="none" x="0" y="10" font-size="10px" fill="#2A2C34" font-family="sans-serif"> Maguire</text></g><g class="node" transform="translate(313.1616011078202,-8.953438710067395)"><circle class="outline" cx="0" cy="0" r="25" fill="#F79767" stroke="#f36924" stroke-width="2px"/><text text-anchor="middle" pointer-events="none" font-family="sans-serif" dy="1.5625" font-size="25" fill="#FFFFFF"/><text text-anchor="middle" pointer-events="none" font-family="sans-serif" dy="1.5625" font-size="25" fill="#FFFFFF"/><text text-anchor="middle" pointer-events="none" x="0" y="0" font-size="10px" fill="#FFFFFF" font-family="sans-serif"> Lana</text><text text-anchor="middle" pointer-events="none" x="0" y="10" font-size="10px" fill="#FFFFFF" font-family="sans-serif"> Wacho…</text></g><g class="node" transform="translate(184.73324019631104,-16.403496488324592)"><circle class="outline" cx="0" cy="0" r="25" fill="#57C7E3" stroke="#23b3d7" stroke-width="2px"/><text text-anchor="middle" pointer-events="none" font-family="sans-serif" dy="1.5625" font-size="25" fill="#2A2C34"/><text text-anchor="middle" pointer-events="none" font-family="sans-serif" dy="1.5625" font-size="25" fill="#2A2C34"/><text text-anchor="middle" pointer-events="none" x="0" y="0" font-size="10px" fill="#2A2C34" font-family="sans-serif"> Speed</text><text text-anchor="middle" pointer-events="none" x="0" y="10" font-size="10px" fill="#2A2C34" font-family="sans-serif"> Racer</text></g><g class="node" transform="translate(54.77205466430496,-19.741607646402578)"><circle class="outline" cx="0" cy="0" r="25" fill="#F79767" stroke="#f36924" stroke-width="2px"/><text text-anchor="middle" pointer-events="none" font-family="sans-serif" dy="1.5625" font-size="25" fill="#FFFFFF"/><text text-anchor="middle" pointer-events="none" font-family="sans-serif" dy="1.5625" font-size="25" fill="#FFFFFF"/><text text-anchor="middle" pointer-events="none" x="0" y="0" font-size="10px" fill="#FFFFFF" font-family="sans-serif"> Lilly</text><text text-anchor="middle" pointer-events="none" x="0" y="10" font-size="10px" fill="#FFFFFF" font-family="sans-serif"> Wacho…</text></g><g class="node" transform="translate(-88.29084963350002,120.94512149338954)"><circle class="outline" cx="0" cy="0" r="25" fill="#F79767" stroke="#f36924" stroke-width="2px"/><text text-anchor="middle" pointer-events="none" font-family="sans-serif" dy="1.5625" font-size="25" fill="#FFFFFF"/><text text-anchor="middle" pointer-events="none" font-family="sans-serif" dy="1.5625" font-size="25" fill="#FFFFFF"/><text text-anchor="middle" pointer-events="none" x="0" y="0" font-size="10px" fill="#FFFFFF" font-family="sans-serif"> Nancy</text><text text-anchor="middle" pointer-events="none" x="0" y="10" font-size="10px" fill="#FFFFFF" font-family="sans-serif"> Meyers</text></g><g class="node" transform="translate(67.33087238639322,115.95736305809567)"><circle class="outline" cx="0" cy="0" r="25" fill="#57C7E3" stroke="#23b3d7" stroke-width="2px"/><text text-anchor="middle" pointer-events="none" font-family="sans-serif" dy="1.5625" font-size="25" fill="#2A2C34"/><text text-anchor="middle" pointer-events="none" x="0" y="5" font-size="10px" fill="#2A2C34" font-family="sans-serif"> Somethi…</text></g></g></svg>