<svg xmlns="http://www.w3.org/2000/svg" width="439.22900390625" height="421.22235107421875" viewBox="150.092041015625 -87.97633361816406 439.22900390625 421.22235107421875"><title>Neo4j Graph Visualization</title><desc>Created using Neo4j (http://www.neo4j.com/)</desc><g class="layer relationships"><g class="relationship" transform="translate(179.0920481770373 61.605164073811636) rotate(419.5925851312702)"><path class="outline" fill="#FFC454" stroke="none" d="M 25 0.5 L 114.38855689935329 0.5 L 114.38855689935329 -0.5 L 25 -0.5 Z M 159.9510568993533 0.5 L 249.33961379870658 0.5 L 249.33961379870658 3.5 L 256.3396137987066 0 L 249.33961379870658 -3.5 L 249.33961379870658 -0.5 L 159.9510568993533 -0.5 Z"/><text text-anchor="middle" pointer-events="none" font-size="8px" fill="#000000" x="137.1698068993533" y="3" font-family="sans-serif">ACTED_IN</text></g><g class="relationship" transform="translate(179.0920481770373 61.605164073811636) rotate(324.9538899109124)"><path class="outline" fill="#FFC454" stroke="none" d="M 25 0.5 L 65.60178669525249 0.5 L 65.60178669525249 -0.5 L 25 -0.5 Z M 111.16428669525249 0.5 L 151.76607339050497 0.5 L 151.76607339050497 3.5 L 158.76607339050497 0 L 151.76607339050497 -3.5 L 151.76607339050497 -0.5 L 111.16428669525249 -0.5 Z"/><text text-anchor="middle" pointer-events="none" font-size="8px" fill="#000000" x="88.38303669525249" y="3" font-family="sans-serif">ACTED_IN</text></g><g class="relationship" transform="translate(179.0920481770373 61.605164073811636) rotate(408.6852872747972)"><path class="outline" fill="#FFC454" stroke="none" d="M 25 0.5 L 81.60932550511046 0.5 L 81.60932550511046 -0.5 L 25 -0.5 Z M 127.17182550511046 0.5 L 183.78115101022092 0.5 L 183.78115101022092 3.5 L 190.78115101022092 0 L 183.78115101022092 -3.5 L 183.78115101022092 -0.5 L 127.17182550511046 -0.5 Z"/><text text-anchor="middle" pointer-events="none" font-size="8px" fill="#000000" x="104.39057550511046" y="3" font-family="sans-serif">ACTED_IN</text></g><g class="relationship" transform="translate(179.0920481770373 61.605164073811636) rotate(387.3487005424686)"><path class="outline" fill="#FFC454" stroke="none" d="M 25 0.5 L 55.91306708874917 0.5 L 55.91306708874917 -0.5 L 25 -0.5 Z M 101.47556708874917 0.5 L 132.38863417749835 0.5 L 132.38863417749835 3.5 L 139.38863417749835 0 L 132.38863417749835 -3.5 L 132.38863417749835 -0.5 L 101.47556708874917 -0.5 Z"/><text text-anchor="middle" pointer-events="none" font-size="8px" fill="#000000" x="78.69431708874917" y="3" font-family="sans-serif">ACTED_IN</text></g><g class="relationship" transform="translate(179.0920481770373 61.605164073811636) rotate(355.1527654032782)"><path class="outline" fill="#FFC454" stroke="none" d="M 25 0.5 L 47.93364291143497 0.5 L 47.93364291143497 -0.5 L 25 -0.5 Z M 93.49614291143497 0.5 L 116.42978582286995 0.5 L 116.42978582286995 3.5 L 123.42978582286995 0 L 116.42978582286995 -3.5 L 116.42978582286995 -0.5 L 93.49614291143497 -0.5 Z"/><text text-anchor="middle" pointer-events="none" font-size="8px" fill="#000000" x="70.71489291143497" y="3" font-family="sans-serif">ACTED_IN</text></g><g class="relationship" transform="translate(552.9524865908842 251.44630817771412) rotate(527.1498990235561)"><path class="outline" fill="#604A0E" stroke="none" d="M 25 0.5 L 91.75843904430631 0.5 L 91.75843904430631 -0.5 L 25 -0.5 Z M 138.64906404430633 0.5 L 205.40750308861263 0.5 L 205.40750308861263 3.5 L 212.40750308861263 0 L 205.40750308861263 -3.5 L 205.40750308861263 -0.5 L 138.64906404430633 -0.5 Z"/><text text-anchor="middle" pointer-events="none" font-size="8px" fill="#000000" x="115.20375154430631" y="3" transform="rotate(180 115.20375154430631 0)" font-family="sans-serif">DIRECTED</text></g><g class="relationship" transform="translate(548.1230272769423 29.082071570737526) rotate(198.46814466741398)"><path class="outline" fill="#C990C0" stroke="none" d="M 24.018736134675446,6.953439040707552 L 24.277555179777966,5.987513214418485 A 348.05261652196276 348.05261652196276 0 0 0 85.88036851139759,16.679962942236784 L 85.79854228406845,17.676609553890614 A 349.05261652196276 349.05261652196276 0 0 1 24.018736134675446,6.953439040707552 Z M 137.60488871125352,18.07228423914654 L 137.5382950615355,17.07450406004034 A 348.05261652196276 348.05261652196276 0 0 0 199.29724109599834,7.324238614188224 L 198.56513592542385,4.414939382548744 L 206.2076234982529,6.100876421454278 L 200.27338132343104,11.203304256374196 L 199.54127615285654,8.294005024734718 A 349.05261652196276 349.05261652196276 0 0 1 137.60488871125352,18.07228423914654"/><text text-anchor="middle" pointer-events="none" font-size="8px" fill="#000000" x="111.69818307411907" y="21.33695300206216" transform="rotate(180 111.69818307411907 18.33695300206216)" font-family="sans-serif">PRODUCED</text></g><g class="relationship" transform="translate(548.1230272769423 29.082071570737526) rotate(198.46814466741398)"><path class="outline" fill="#A5ABB6" stroke="none" d="M 24.018736134675446,-6.953439040707552 L 24.277555179777966,-5.987513214418485 A 348.05261652196276 348.05261652196276 0 0 1 93.85279992522382,-17.242441083523147 L 93.79387952027722,-18.24070376732982 A 349.05261652196276 349.05261652196276 0 0 0 24.018736134675446,-6.953439040707552 Z M 129.60186807927874,-18.51418984731515 L 129.55820226408525,-17.51514365389687 A 348.05261652196276 348.05261652196276 0 0 1 199.29724109599834,-7.324238614188224 L 198.56513592542385,-4.414939382548744 L 206.2076234982529,-6.100876421454278 L 200.27338132343104,-11.203304256374196 L 199.54127615285654,-8.294005024734718 A 349.05261652196276 349.05261652196276 0 0 0 129.60186807927874,-18.51418984731515"/><text text-anchor="middle" pointer-events="none" font-size="8px" fill="#000000" x="111.69818307411899" y="-15.33695300206216" transform="rotate(180 111.69818307411899 -18.33695300206216)" font-family="sans-serif">WROTE</text></g><g class="relationship" transform="translate(548.1230272769423 29.082071570737526) rotate(489.47576565061945)"><path class="outline" fill="#604A0E" stroke="none" d="M 25 0.5 L 151.29424311541914 0.5 L 151.29424311541914 -0.5 L 25 -0.5 Z M 198.18486811541914 0.5 L 324.47911123083827 0.5 L 324.47911123083827 3.5 L 331.47911123083827 0 L 324.47911123083827 -3.5 L 324.47911123083827 -0.5 L 198.18486811541914 -0.5 Z"/><text text-anchor="middle" pointer-events="none" font-size="8px" fill="#000000" x="174.73955561541914" y="3" transform="rotate(180 174.73955561541914 0)" font-family="sans-serif">DIRECTED</text></g><g class="relationship" transform="translate(548.1230272769423 29.082071570737526) rotate(499.34199457354646)"><path class="outline" fill="#604A0E" stroke="none" d="M 25 0.5 L 122.38887416094065 0.5 L 122.38887416094065 -0.5 L 25 -0.5 Z M 169.27949916094065 0.5 L 266.6683733218813 0.5 L 266.6683733218813 3.5 L 273.6683733218813 0 L 266.6683733218813 -3.5 L 266.6683733218813 -0.5 L 169.27949916094065 -0.5 Z"/><text text-anchor="middle" pointer-events="none" font-size="8px" fill="#000000" x="145.83418666094065" y="3" transform="rotate(180 145.83418666094065 0)" font-family="sans-serif">DIRECTED</text></g><g class="relationship" transform="translate(548.1230272769423 29.082071570737526) rotate(514.151374880222)"><path class="outline" fill="#604A0E" stroke="none" d="M 25 0.5 L 96.95977816925247 0.5 L 96.95977816925247 -0.5 L 25 -0.5 Z M 143.85040316925247 0.5 L 215.81018133850495 0.5 L 215.81018133850495 3.5 L 222.81018133850495 0 L 215.81018133850495 -3.5 L 215.81018133850495 -0.5 L 143.85040316925247 -0.5 Z"/><text text-anchor="middle" pointer-events="none" font-size="8px" fill="#000000" x="120.40509066925247" y="3" transform="rotate(180 120.40509066925247 0)" font-family="sans-serif">DIRECTED</text></g><g class="relationship" transform="translate(548.1230272769423 29.082071570737526) rotate(534.8369335734996)"><path class="outline" fill="#604A0E" stroke="none" d="M 25 0.5 L 84.07114754534955 0.5 L 84.07114754534955 -0.5 L 25 -0.5 Z M 130.96177254534956 0.5 L 190.0329200906991 0.5 L 190.0329200906991 3.5 L 197.0329200906991 0 L 190.0329200906991 -3.5 L 190.0329200906991 -0.5 L 130.96177254534956 -0.5 Z"/><text text-anchor="middle" pointer-events="none" font-size="8px" fill="#000000" x="107.51646004534955" y="3" transform="rotate(180 107.51646004534955 0)" font-family="sans-serif">DIRECTED</text></g><g class="relationship" transform="translate(560.32101614819 146.09412091834625) rotate(219.4663366745666)"><path class="outline" fill="#C990C0" stroke="none" d="M 24.018736134675446,6.953439040707552 L 24.277555179777966,5.987513214418485 A 481.12888331769307 481.12888331769307 0 0 0 120.10480844977802,21.524937919843808 L 120.04516109565611,22.52315743134733 A 482.12888331769307 482.12888331769307 0 0 1 24.018736134675446,6.953439040707552 Z M 171.85429622217757,22.83020270473179 L 171.8064844778733,21.83134634012947 A 481.12888331769307 481.12888331769307 0 0 0 267.8111641822413,7.430807787313174 L 267.0691075630442,4.5240308825773194 L 274.7173197298245,6.183805159975894 L 268.80057300783744,11.30651032696098 L 268.0585163886403,8.399733422225125 A 482.12888331769307 482.12888331769307 0 0 1 171.85429622217757,22.83020270473179"/><text text-anchor="middle" pointer-events="none" font-size="8px" fill="#000000" x="145.94856443723359" y="25.873124448504086" transform="rotate(180 145.94856443723359 22.873124448504086)" font-family="sans-serif">PRODUCED</text></g><g class="relationship" transform="translate(560.32101614819 146.09412091834625) rotate(219.4663366745666)"><path class="outline" fill="#A5ABB6" stroke="none" d="M 24.018736134675446,-6.953439040707552 L 24.277555179777966,-5.987513214418485 A 481.12888331769307 481.12888331769307 0 0 1 128.0897647638262,-21.93551493846485 L 128.04671370352682,-22.934587811786457 A 482.12888331769307 482.12888331769307 0 0 0 24.018736134675446,-6.953439040707552 Z M 163.84842918418275,-23.146765596467617 L 163.81722268240807,-22.14725263794878 A 481.12888331769307 481.12888331769307 0 0 1 267.8111641822413,-7.430807787313174 L 267.0691075630442,-4.5240308825773194 L 274.7173197298245,-6.183805159975894 L 268.80057300783744,-11.30651032696098 L 268.0585163886403,-8.399733422225125 A 482.12888331769307 482.12888331769307 0 0 0 163.84842918418275,-23.146765596467617"/><text text-anchor="middle" pointer-events="none" font-size="8px" fill="#000000" x="145.94856443723341" y="-19.873124448504086" transform="rotate(180 145.94856443723341 -22.873124448504086)" font-family="sans-serif">WROTE</text></g><g class="relationship" transform="translate(560.32101614819 146.09412091834625) rotate(506.4877231774889)"><path class="outline" fill="#604A0E" stroke="none" d="M 25 0.5 L 116.27819452871069 0.5 L 116.27819452871069 -0.5 L 25 -0.5 Z M 163.16881952871069 0.5 L 254.44701405742137 0.5 L 254.44701405742137 3.5 L 261.44701405742137 0 L 254.44701405742137 -3.5 L 254.44701405742137 -0.5 L 163.16881952871069 -0.5 Z"/><text text-anchor="middle" pointer-events="none" font-size="8px" fill="#000000" x="139.72350702871069" y="3" transform="rotate(180 139.72350702871069 0)" font-family="sans-serif">DIRECTED</text></g><g class="relationship" transform="translate(560.32101614819 146.09412091834625) rotate(521.9996597315939)"><path class="outline" fill="#604A0E" stroke="none" d="M 25 0.5 L 98.5844970296124 0.5 L 98.5844970296124 -0.5 L 25 -0.5 Z M 145.4751220296124 0.5 L 219.0596190592248 0.5 L 219.0596190592248 3.5 L 226.0596190592248 0 L 219.0596190592248 -3.5 L 219.0596190592248 -0.5 L 145.4751220296124 -0.5 Z"/><text text-anchor="middle" pointer-events="none" font-size="8px" fill="#000000" x="122.0298095296124" y="3" transform="rotate(180 122.0298095296124 0)" font-family="sans-serif">DIRECTED</text></g><g class="relationship" transform="translate(560.32101614819 146.09412091834625) rotate(182.1834637375518)"><path class="outline" fill="#604A0E" stroke="none" d="M 25 0.5 L 90.74740465966546 0.5 L 90.74740465966546 -0.5 L 25 -0.5 Z M 137.63802965966545 0.5 L 203.38543431933093 0.5 L 203.38543431933093 3.5 L 210.38543431933093 0 L 203.38543431933093 -3.5 L 203.38543431933093 -0.5 L 137.63802965966545 -0.5 Z"/><text text-anchor="middle" pointer-events="none" font-size="8px" fill="#000000" x="114.19271715966546" y="3" transform="rotate(180 114.19271715966546 0)" font-family="sans-serif">DIRECTED</text></g><g class="relationship" transform="translate(560.32101614819 146.09412091834625) rotate(202.58016743994745)"><path class="outline" fill="#604A0E" stroke="none" d="M 25 0.5 L 99.40534460024843 0.5 L 99.40534460024843 -0.5 L 25 -0.5 Z M 146.29596960024844 0.5 L 220.70131420049685 0.5 L 220.70131420049685 3.5 L 227.70131420049685 0 L 220.70131420049685 -3.5 L 220.70131420049685 -0.5 L 146.29596960024844 -0.5 Z"/><text text-anchor="middle" pointer-events="none" font-size="8px" fill="#000000" x="122.85065710024843" y="3" transform="rotate(180 122.85065710024843 0)" font-family="sans-serif">DIRECTED</text></g><g class="relationship" transform="translate(431.7811435312567 -58.97633408470919) rotate(531.622613260525)"><path class="outline" fill="#604A0E" stroke="none" d="M 25 0.5 L 26.283482388456278 0.5 L 26.283482388456278 -0.5 L 25 -0.5 Z M 70.06082613845628 0.5 L 71.34430852691256 0.5 L 71.34430852691256 3.5 L 78.34430852691256 0 L 71.34430852691256 -3.5 L 71.34430852691256 -0.5 L 70.06082613845628 -0.5 Z"/><text text-anchor="middle" pointer-events="none" font-size="8px" fill="#000000" x="48.17215426345628" y="3" transform="rotate(180 48.17215426345628 0)" font-family="sans-serif">DIRECT…</text></g></g><g class="layer nodes"><g class="node" transform="translate(179.0920481770373,61.605164073811636)"><circle class="outline" cx="0" cy="0" r="25" fill="#F79767" stroke="#f36924" stroke-width="2px"/><text text-anchor="middle" pointer-events="none" font-family="sans-serif" dy="1.5625" font-size="25" fill="#FFFFFF"/><text text-anchor="middle" pointer-events="none" font-family="sans-serif" dy="1.5625" font-size="25" fill="#FFFFFF"/><text text-anchor="middle" pointer-events="none" x="0" y="0" font-size="10px" fill="#FFFFFF" font-family="sans-serif"> Hugo</text><text text-anchor="middle" pointer-events="none" x="0" y="10" font-size="10px" fill="#FFFFFF" font-family="sans-serif"> Weaving</text></g><g class="node" transform="translate(321.4907942266991,304.24600032337884)"><circle class="outline" cx="0" cy="0" r="25" fill="#57C7E3" stroke="#23b3d7" stroke-width="2px"/><text text-anchor="middle" pointer-events="none" font-family="sans-serif" dy="1.5625" font-size="25" fill="#2A2C34"/><text text-anchor="middle" pointer-events="none" font-family="sans-serif" dy="1.5625" font-size="25" fill="#2A2C34"/><text text-anchor="middle" pointer-events="none" x="0" y="0" font-size="10px" fill="#2A2C34" font-family="sans-serif"> Cloud</text><text text-anchor="middle" pointer-events="none" x="0" y="10" font-size="10px" fill="#2A2C34" font-family="sans-serif"> Atlas</text></g><g class="node" transform="translate(552.9524865908842,251.44630817771412)"><circle class="outline" cx="0" cy="0" r="25" fill="#F79767" stroke="#f36924" stroke-width="2px"/><text text-anchor="middle" pointer-events="none" font-family="sans-serif" dy="1.5625" font-size="25" fill="#FFFFFF"/><text text-anchor="middle" pointer-events="none" font-family="sans-serif" dy="1.5625" font-size="25" fill="#FFFFFF"/><text text-anchor="middle" pointer-events="none" x="0" y="0" font-size="10px" fill="#FFFFFF" font-family="sans-serif"> Tom</text><text text-anchor="middle" pointer-events="none" x="0" y="10" font-size="10px" fill="#FFFFFF" font-family="sans-serif"> Tykwer</text></g><g class="node" transform="translate(548.1230272769423,29.082071570737526)"><circle class="outline" cx="0" cy="0" r="25" fill="#F79767" stroke="#f36924" stroke-width="2px"/><text text-anchor="middle" pointer-events="none" font-family="sans-serif" dy="1.5625" font-size="25" fill="#FFFFFF"/><text text-anchor="middle" pointer-events="none" font-family="sans-serif" dy="1.5625" font-size="25" fill="#FFFFFF"/><text text-anchor="middle" pointer-events="none" x="0" y="0" font-size="10px" fill="#FFFFFF" font-family="sans-serif"> Lana</text><text text-anchor="middle" pointer-events="none" x="0" y="10" font-size="10px" fill="#FFFFFF" font-family="sans-serif"> Wacho…</text></g><g class="node" transform="translate(560.32101614819,146.09412091834625)"><circle class="outline" cx="0" cy="0" r="25" fill="#F79767" stroke="#f36924" stroke-width="2px"/><text text-anchor="middle" pointer-events="none" font-family="sans-serif" dy="1.5625" font-size="25" fill="#FFFFFF"/><text text-anchor="middle" pointer-events="none" font-family="sans-serif" dy="1.5625" font-size="25" fill="#FFFFFF"/><text text-anchor="middle" pointer-events="none" x="0" y="0" font-size="10px" fill="#FFFFFF" font-family="sans-serif"> Lilly</text><text text-anchor="middle" pointer-events="none" x="0" y="10" font-size="10px" fill="#FFFFFF" font-family="sans-serif"> Wacho…</text></g><g class="node" transform="translate(329.539527937171,-43.91983563331286)"><circle class="outline" cx="0" cy="0" r="25" fill="#57C7E3" stroke="#23b3d7" stroke-width="2px"/><text text-anchor="middle" pointer-events="none" font-family="sans-serif" dy="1.5625" font-size="25" fill="#2A2C34"/><text text-anchor="middle" pointer-events="none" font-family="sans-serif" dy="1.5625" font-size="25" fill="#2A2C34"/><text text-anchor="middle" pointer-events="none" x="0" y="0" font-size="10px" fill="#2A2C34" font-family="sans-serif"> V for</text><text text-anchor="middle" pointer-events="none" x="0" y="10" font-size="10px" fill="#2A2C34" font-family="sans-serif"> Vendetta</text></g><g class="node" transform="translate(431.7811435312567,-58.97633408470919)"><circle class="outline" cx="0" cy="0" r="25" fill="#F79767" stroke="#f36924" stroke-width="2px"/><text text-anchor="middle" pointer-events="none" font-family="sans-serif" dy="1.5625" font-size="25" fill="#FFFFFF"/><text text-anchor="middle" pointer-events="none" font-family="sans-serif" dy="1.5625" font-size="25" fill="#FFFFFF"/><text text-anchor="middle" pointer-events="none" x="0" y="0" font-size="10px" fill="#FFFFFF" font-family="sans-serif"> James</text><text text-anchor="middle" pointer-events="none" x="0" y="10" font-size="10px" fill="#FFFFFF" font-family="sans-serif"> Marshall</text></g><g class="node" transform="translate(321.5495902099925,223.67722782702162)"><circle class="outline" cx="0" cy="0" r="25" fill="#57C7E3" stroke="#23b3d7" stroke-width="2px"/><text text-anchor="middle" pointer-events="none" font-family="sans-serif" dy="1.5625" font-size="25" fill="#2A2C34"/><text text-anchor="middle" pointer-events="none" font-family="sans-serif" dy="1.5625" font-size="25" fill="#2A2C34"/><text text-anchor="middle" pointer-events="none" font-family="sans-serif" dy="1.5625" font-size="25" fill="#2A2C34"/><text text-anchor="middle" pointer-events="none" x="0" y="-5" font-size="10px" fill="#2A2C34" font-family="sans-serif"> The</text><text text-anchor="middle" pointer-events="none" x="0" y="5" font-size="10px" fill="#2A2C34" font-family="sans-serif"> Matrix</text><text text-anchor="middle" pointer-events="none" x="0" y="15" font-size="10px" fill="#2A2C34" font-family="sans-serif"> Revol…</text></g><g class="node" transform="translate(325.1064824857468,137.12607521934092)"><circle class="outline" cx="0" cy="0" r="25" fill="#57C7E3" stroke="#23b3d7" stroke-width="2px"/><text text-anchor="middle" pointer-events="none" font-family="sans-serif" dy="1.5625" font-size="25" fill="#2A2C34"/><text text-anchor="middle" pointer-events="none" font-family="sans-serif" dy="1.5625" font-size="25" fill="#2A2C34"/><text text-anchor="middle" pointer-events="none" font-family="sans-serif" dy="1.5625" font-size="25" fill="#2A2C34"/><text text-anchor="middle" pointer-events="none" x="0" y="-5" font-size="10px" fill="#2A2C34" font-family="sans-serif"> The</text><text text-anchor="middle" pointer-events="none" x="0" y="5" font-size="10px" fill="#2A2C34" font-family="sans-serif"> Matrix</text><text text-anchor="middle" pointer-events="none" x="0" y="15" font-size="10px" fill="#2A2C34" font-family="sans-serif"> Reloa…</text></g><g class="node" transform="translate(326.99098031563676,49.0629476953162)"><circle class="outline" cx="0" cy="0" r="25" fill="#57C7E3" stroke="#23b3d7" stroke-width="2px"/><text text-anchor="middle" pointer-events="none" font-family="sans-serif" dy="1.5625" font-size="25" fill="#2A2C34"/><text text-anchor="middle" pointer-events="none" font-family="sans-serif" dy="1.5625" font-size="25" fill="#2A2C34"/><text text-anchor="middle" pointer-events="none" x="0" y="0" font-size="10px" fill="#2A2C34" font-family="sans-serif"> The</text><text text-anchor="middle" pointer-events="none" x="0" y="10" font-size="10px" fill="#2A2C34" font-family="sans-serif"> Matrix</text></g></g></svg>