<svg xmlns="http://www.w3.org/2000/svg" width="507.772216796875" height="306.4990234375" viewBox="-215.134765625 -16.78152847290039 507.772216796875 306.4990234375"><title>Neo4j Graph Visualization</title><desc>Created using Neo4j (http://www.neo4j.com/)</desc><g class="layer relationships"><g class="relationship" transform="translate(196.21931075213382 114.80031694481073) rotate(318.62495022049194)"><path class="outline" fill="#FFC454" stroke="none" d="M 25 0.5 L 26.421520857392345 0.5 L 26.421520857392345 -0.5 L 25 -0.5 Z M 56.421520857392345 0.5 L 57.84304171478469 0.5 L 57.84304171478469 3.5 L 64.84304171478469 0 L 57.84304171478469 -3.5 L 57.84304171478469 -0.5 L 56.421520857392345 -0.5 Z"/><text text-anchor="middle" pointer-events="none" font-size="8px" fill="#000000" x="41.421520857392345" y="3" font-family="sans-serif">ACT…</text></g><g class="relationship" transform="translate(196.21931075213382 114.80031694481073) rotate(403.5355934975082)"><path class="outline" fill="#FFC454" stroke="none" d="M 25 0.5 L 26.8420170625536 0.5 L 26.8420170625536 -0.5 L 25 -0.5 Z M 56.8420170625536 0.5 L 58.6840341251072 0.5 L 58.6840341251072 3.5 L 65.6840341251072 0 L 58.6840341251072 -3.5 L 58.6840341251072 -0.5 L 56.8420170625536 -0.5 Z"/><text text-anchor="middle" pointer-events="none" font-size="8px" fill="#000000" x="41.8420170625536" y="3" font-family="sans-serif">ACT…</text></g><g class="relationship" transform="translate(196.21931075213382 114.80031694481073) rotate(180.19582563039688)"><path class="outline" fill="#FFC454" stroke="none" d="M 25 0.5 L 37.956006851747105 0.5 L 37.956006851747105 -0.5 L 25 -0.5 Z M 83.5185068517471 0.5 L 96.47451370349421 0.5 L 96.47451370349421 3.5 L 103.47451370349421 0 L 96.47451370349421 -3.5 L 96.47451370349421 -0.5 L 83.5185068517471 -0.5 Z"/><text text-anchor="middle" pointer-events="none" font-size="8px" fill="#000000" x="60.737256851747105" y="3" transform="rotate(180 60.737256851747105 0)" font-family="sans-serif">ACTED_IN</text></g><g class="relationship" transform="translate(196.21931075213382 114.80031694481073) rotate(503.69539590291595)"><path class="outline" fill="#FFC454" stroke="none" d="M 25 0.5 L 96.94340102791112 0.5 L 96.94340102791112 -0.5 L 25 -0.5 Z M 142.50590102791114 0.5 L 214.44930205582224 0.5 L 214.44930205582224 3.5 L 221.44930205582224 0 L 214.44930205582224 -3.5 L 214.44930205582224 -0.5 L 142.50590102791114 -0.5 Z"/><text text-anchor="middle" pointer-events="none" font-size="8px" fill="#000000" x="119.72465102791112" y="3" transform="rotate(180 119.72465102791112 0)" font-family="sans-serif">ACTED_IN</text></g><g class="relationship" transform="translate(196.21931075213382 114.80031694481073) rotate(204.02800011344016)"><path class="outline" fill="#FFC454" stroke="none" d="M 25 0.5 L 60.99178705704003 0.5 L 60.99178705704003 -0.5 L 25 -0.5 Z M 106.55428705704003 0.5 L 142.54607411408006 0.5 L 142.54607411408006 3.5 L 149.54607411408006 0 L 142.54607411408006 -3.5 L 142.54607411408006 -0.5 L 106.55428705704003 -0.5 Z"/><text text-anchor="middle" pointer-events="none" font-size="8px" fill="#000000" x="83.77303705704003" y="3" transform="rotate(180 83.77303705704003 0)" font-family="sans-serif">ACTED_IN</text></g><g class="relationship" transform="translate(26.691377041172018 193.54388016297304) rotate(297.4055756864532)"><path class="outline" fill="#FFC454" stroke="none" d="M 25 0.5 L 26.09635354058974 0.5 L 26.09635354058974 -0.5 L 25 -0.5 Z M 56.09635354058974 0.5 L 57.19270708117948 0.5 L 57.19270708117948 3.5 L 64.19270708117948 0 L 57.19270708117948 -3.5 L 57.19270708117948 -0.5 L 56.09635354058974 -0.5 Z"/><text text-anchor="middle" pointer-events="none" font-size="8px" fill="#000000" x="41.09635354058974" y="3" font-family="sans-serif">ACT…</text></g><g class="relationship" transform="translate(26.691377041172018 193.54388016297304) rotate(473.40874837320877)"><path class="outline" fill="#FFC454" stroke="none" d="M 25 0.5 L 33.09914596649957 0.5 L 33.09914596649957 -0.5 L 25 -0.5 Z M 33.09914596649957 0.5 L 41.19829193299914 0.5 L 41.19829193299914 3.5 L 48.19829193299914 0 L 41.19829193299914 -3.5 L 41.19829193299914 -0.5 L 33.09914596649957 -0.5 Z"/><text text-anchor="middle" pointer-events="none" font-size="8px" fill="#000000" x="33.09914596649957" y="3" transform="rotate(180 33.09914596649957 0)" font-family="sans-serif"/></g><g class="relationship" transform="translate(26.691377041172018 193.54388016297304) rotate(273.8594411854288)"><path class="outline" fill="#FFC454" stroke="none" d="M 25 0.5 L 48.796896078187274 0.5 L 48.796896078187274 -0.5 L 25 -0.5 Z M 94.35939607818727 0.5 L 118.15629215637455 0.5 L 118.15629215637455 3.5 L 125.15629215637455 0 L 118.15629215637455 -3.5 L 118.15629215637455 -0.5 L 94.35939607818727 -0.5 Z"/><text text-anchor="middle" pointer-events="none" font-size="8px" fill="#000000" x="71.57814607818727" y="3" font-family="sans-serif">ACTED_IN</text></g><g class="relationship" transform="translate(-117.8672706911276 60.263348099484375) rotate(376.249051552025)"><path class="outline" fill="#FFC454" stroke="none" d="M 25 0.5 L 70.3866062230972 0.5 L 70.3866062230972 -0.5 L 25 -0.5 Z M 115.9491062230972 0.5 L 161.3357124461944 0.5 L 161.3357124461944 3.5 L 168.3357124461944 0 L 161.3357124461944 -3.5 L 161.3357124461944 -0.5 L 115.9491062230972 -0.5 Z"/><text text-anchor="middle" pointer-events="none" font-size="8px" fill="#000000" x="93.1678562230972" y="3" font-family="sans-serif">ACTED_IN</text></g><g class="relationship" transform="translate(-117.8672706911276 60.263348099484375) rotate(420.0545709687044)"><path class="outline" fill="#FFC454" stroke="none" d="M 25 0.5 L 89.3874623265717 0.5 L 89.3874623265717 -0.5 L 25 -0.5 Z M 134.9499623265717 0.5 L 199.3374246531434 0.5 L 199.3374246531434 3.5 L 206.3374246531434 0 L 199.3374246531434 -3.5 L 199.3374246531434 -0.5 L 134.9499623265717 -0.5 Z"/><text text-anchor="middle" pointer-events="none" font-size="8px" fill="#000000" x="112.1687123265717" y="3" font-family="sans-serif">ACTED_IN</text></g><g class="relationship" transform="translate(-117.8672706911276 60.263348099484375) rotate(353.8977086473848)"><path class="outline" fill="#FFC454" stroke="none" d="M 25 0.5 L 51.49219909710264 0.5 L 51.49219909710264 -0.5 L 25 -0.5 Z M 97.05469909710264 0.5 L 123.54689819420528 0.5 L 123.54689819420528 3.5 L 130.54689819420528 0 L 123.54689819420528 -3.5 L 123.54689819420528 -0.5 L 97.05469909710264 -0.5 Z"/><text text-anchor="middle" pointer-events="none" font-size="8px" fill="#000000" x="74.27344909710264" y="3" font-family="sans-serif">ACTED_IN</text></g><g class="relationship" transform="translate(-49.01892216464836 149.3085076585461) rotate(208.40974697995875)"><path class="outline" fill="#FFC454" stroke="none" d="M 25 0.5 L 51.66377179746827 0.5 L 51.66377179746827 -0.5 L 25 -0.5 Z M 97.22627179746827 0.5 L 123.89004359493654 0.5 L 123.89004359493654 3.5 L 130.89004359493654 0 L 123.89004359493654 -3.5 L 123.89004359493654 -0.5 L 97.22627179746827 -0.5 Z"/><text text-anchor="middle" pointer-events="none" font-size="8px" fill="#000000" x="74.44502179746827" y="3" transform="rotate(180 74.44502179746827 0)" font-family="sans-serif">ACTED_IN</text></g><g class="relationship" transform="translate(-49.01892216464836 149.3085076585461) rotate(530.528856521955)"><path class="outline" fill="#FFC454" stroke="none" d="M 25 0.5 L 42.20187712900348 0.5 L 42.20187712900348 -0.5 L 25 -0.5 Z M 87.76437712900348 0.5 L 104.96625425800696 0.5 L 104.96625425800696 3.5 L 111.96625425800696 0 L 104.96625425800696 -3.5 L 104.96625425800696 -0.5 L 87.76437712900348 -0.5 Z"/><text text-anchor="middle" pointer-events="none" font-size="8px" fill="#000000" x="64.98312712900348" y="3" transform="rotate(180 64.98312712900348 0)" font-family="sans-serif">ACTED_IN</text></g><g class="relationship" transform="translate(-49.01892216464836 149.3085076585461) rotate(259.56853896658146)"><path class="outline" fill="#FFC454" stroke="none" d="M 25 0.5 L 43.41570563439791 0.5 L 43.41570563439791 -0.5 L 25 -0.5 Z M 88.97820563439791 0.5 L 107.39391126879582 0.5 L 107.39391126879582 3.5 L 114.39391126879582 0 L 107.39391126879582 -3.5 L 107.39391126879582 -0.5 L 88.97820563439791 -0.5 Z"/><text text-anchor="middle" pointer-events="none" font-size="8px" fill="#000000" x="66.19695563439791" y="3" transform="rotate(180 66.19695563439791 0)" font-family="sans-serif">ACTED_IN</text></g><g class="relationship" transform="translate(-49.01892216464836 149.3085076585461) rotate(481.9142118450277)"><path class="outline" fill="#FFC454" stroke="none" d="M 25 0.5 L 35.16939240151439 0.5 L 35.16939240151439 -0.5 L 25 -0.5 Z M 80.73189240151439 0.5 L 90.90128480302879 0.5 L 90.90128480302879 3.5 L 97.90128480302879 0 L 90.90128480302879 -3.5 L 90.90128480302879 -0.5 L 80.73189240151439 -0.5 Z"/><text text-anchor="middle" pointer-events="none" font-size="8px" fill="#000000" x="57.95064240151439" y="3" transform="rotate(180 57.95064240151439 0)" font-family="sans-serif">ACTED_IN</text></g><g class="relationship" transform="translate(-49.01892216464836 149.3085076585461) rotate(343.3377003648259)"><path class="outline" fill="#FFC454" stroke="none" d="M 25 0.5 L 34.65981673471514 0.5 L 34.65981673471514 -0.5 L 25 -0.5 Z M 80.22231673471515 0.5 L 89.88213346943029 0.5 L 89.88213346943029 3.5 L 96.88213346943029 0 L 89.88213346943029 -3.5 L 89.88213346943029 -0.5 L 80.22231673471515 -0.5 Z"/><text text-anchor="middle" pointer-events="none" font-size="8px" fill="#000000" x="57.44106673471514" y="3" font-family="sans-serif">ACTED_IN</text></g><g class="relationship" transform="translate(-49.01892216464836 149.3085076585461) rotate(427.2885775137582)"><path class="outline" fill="#FFC454" stroke="none" d="M 25 0.5 L 34.10557799603716 0.5 L 34.10557799603716 -0.5 L 25 -0.5 Z M 79.66807799603717 0.5 L 88.77365599207432 0.5 L 88.77365599207432 3.5 L 95.77365599207432 0 L 88.77365599207432 -3.5 L 88.77365599207432 -0.5 L 79.66807799603717 -0.5 Z"/><text text-anchor="middle" pointer-events="none" font-size="8px" fill="#000000" x="56.88682799603716" y="3" font-family="sans-serif">ACTED_IN</text></g><g class="relationship" transform="translate(-49.01892216464836 149.3085076585461) rotate(309.1046786811141)"><path class="outline" fill="#FFC454" stroke="none" d="M 25 0.5 L 41.74779952969256 0.5 L 41.74779952969256 -0.5 L 25 -0.5 Z M 87.31029952969256 0.5 L 104.05809905938511 0.5 L 104.05809905938511 3.5 L 111.05809905938511 0 L 104.05809905938511 -3.5 L 104.05809905938511 -0.5 L 87.31029952969256 -0.5 Z"/><text text-anchor="middle" pointer-events="none" font-size="8px" fill="#000000" x="64.52904952969256" y="3" font-family="sans-serif">ACTED_IN</text></g></g><g class="layer nodes"><g class="node" transform="translate(36.79825112810636,43.72811607140167)"><circle class="outline" cx="0" cy="0" r="25" fill="#57C7E3" stroke="#23b3d7" stroke-width="2px"/><text text-anchor="middle" pointer-events="none" font-family="sans-serif" dy="1.5625" font-size="25" fill="#2A2C34"/><text text-anchor="middle" pointer-events="none" font-family="sans-serif" dy="1.5625" font-size="25" fill="#2A2C34"/><text text-anchor="middle" pointer-events="none" x="0" y="0" font-size="10px" fill="#2A2C34" font-family="sans-serif"> The</text><text text-anchor="middle" pointer-events="none" x="0" y="10" font-size="10px" fill="#2A2C34" font-family="sans-serif"> Matrix</text></g><g class="node" transform="translate(196.21931075213382,114.80031694481073)"><circle class="outline" cx="0" cy="0" r="25" fill="#F79767" stroke="#f36924" stroke-width="2px"/><text text-anchor="middle" pointer-events="none" font-family="sans-serif" dy="1.5625" font-size="25" fill="#FFFFFF"/><text text-anchor="middle" pointer-events="none" font-family="sans-serif" dy="1.5625" font-size="25" fill="#FFFFFF"/><text text-anchor="middle" pointer-events="none" x="0" y="0" font-size="10px" fill="#FFFFFF" font-family="sans-serif"> Hugo</text><text text-anchor="middle" pointer-events="none" x="0" y="10" font-size="10px" fill="#FFFFFF" font-family="sans-serif"> Weaving</text></g><g class="node" transform="translate(263.63743722665276,55.41539994368736)"><circle class="outline" cx="0" cy="0" r="25" fill="#57C7E3" stroke="#23b3d7" stroke-width="2px"/><text text-anchor="middle" pointer-events="none" font-family="sans-serif" dy="1.5625" font-size="25" fill="#2A2C34"/><text text-anchor="middle" pointer-events="none" font-family="sans-serif" dy="1.5625" font-size="25" fill="#2A2C34"/><text text-anchor="middle" pointer-events="none" x="0" y="0" font-size="10px" fill="#2A2C34" font-family="sans-serif"> Cloud</text><text text-anchor="middle" pointer-events="none" x="0" y="10" font-size="10px" fill="#2A2C34" font-family="sans-serif"> Atlas</text></g><g class="node" transform="translate(261.96039377060976,177.26393874791677)"><circle class="outline" cx="0" cy="0" r="25" fill="#57C7E3" stroke="#23b3d7" stroke-width="2px"/><text text-anchor="middle" pointer-events="none" font-family="sans-serif" dy="1.5625" font-size="25" fill="#2A2C34"/><text text-anchor="middle" pointer-events="none" font-family="sans-serif" dy="1.5625" font-size="25" fill="#2A2C34"/><text text-anchor="middle" pointer-events="none" x="0" y="0" font-size="10px" fill="#2A2C34" font-family="sans-serif"> V for</text><text text-anchor="middle" pointer-events="none" x="0" y="10" font-size="10px" fill="#2A2C34" font-family="sans-serif"> Vendetta</text></g><g class="node" transform="translate(67.74554742711155,114.36121734849496)"><circle class="outline" cx="0" cy="0" r="25" fill="#57C7E3" stroke="#23b3d7" stroke-width="2px"/><text text-anchor="middle" pointer-events="none" font-family="sans-serif" dy="1.5625" font-size="25" fill="#2A2C34"/><text text-anchor="middle" pointer-events="none" font-family="sans-serif" dy="1.5625" font-size="25" fill="#2A2C34"/><text text-anchor="middle" pointer-events="none" font-family="sans-serif" dy="1.5625" font-size="25" fill="#2A2C34"/><text text-anchor="middle" pointer-events="none" x="0" y="-5" font-size="10px" fill="#2A2C34" font-family="sans-serif"> The</text><text text-anchor="middle" pointer-events="none" x="0" y="5" font-size="10px" fill="#2A2C34" font-family="sans-serif"> Matrix</text><text text-anchor="middle" pointer-events="none" x="0" y="15" font-size="10px" fill="#2A2C34" font-family="sans-serif"> Revol…</text></g><g class="node" transform="translate(-2.389427138888138,260.71751167229047)"><circle class="outline" cx="0" cy="0" r="25" fill="#57C7E3" stroke="#23b3d7" stroke-width="2px"/><text text-anchor="middle" pointer-events="none" font-family="sans-serif" dy="1.5625" font-size="25" fill="#2A2C34"/><text text-anchor="middle" pointer-events="none" font-family="sans-serif" dy="1.5625" font-size="25" fill="#2A2C34"/><text text-anchor="middle" pointer-events="none" font-family="sans-serif" dy="1.5625" font-size="25" fill="#2A2C34"/><text text-anchor="middle" pointer-events="none" x="0" y="-5" font-size="10px" fill="#2A2C34" font-family="sans-serif"> The</text><text text-anchor="middle" pointer-events="none" x="0" y="5" font-size="10px" fill="#2A2C34" font-family="sans-serif"> Matrix</text><text text-anchor="middle" pointer-events="none" x="0" y="15" font-size="10px" fill="#2A2C34" font-family="sans-serif"> Reloa…</text></g><g class="node" transform="translate(26.691377041172018,193.54388016297304)"><circle class="outline" cx="0" cy="0" r="25" fill="#F79767" stroke="#f36924" stroke-width="2px"/><text text-anchor="middle" pointer-events="none" font-family="sans-serif" dy="1.5625" font-size="25" fill="#FFFFFF"/><text text-anchor="middle" pointer-events="none" font-family="sans-serif" dy="1.5625" font-size="25" fill="#FFFFFF"/><text text-anchor="middle" pointer-events="none" x="0" y="0" font-size="10px" fill="#FFFFFF" font-family="sans-serif"> Laurence</text><text text-anchor="middle" pointer-events="none" x="0" y="10" font-size="10px" fill="#FFFFFF" font-family="sans-serif"> Fishbur…</text></g><g class="node" transform="translate(-117.8672706911276,60.263348099484375)"><circle class="outline" cx="0" cy="0" r="25" fill="#F79767" stroke="#f36924" stroke-width="2px"/><text text-anchor="middle" pointer-events="none" font-family="sans-serif" dy="1.5625" font-size="25" fill="#FFFFFF"/><text text-anchor="middle" pointer-events="none" x="0" y="5" font-size="10px" fill="#FFFFFF" font-family="sans-serif"> Carrie-A…</text></g><g class="node" transform="translate(-49.01892216464836,149.3085076585461)"><circle class="outline" cx="0" cy="0" r="25" fill="#F79767" stroke="#f36924" stroke-width="2px"/><text text-anchor="middle" pointer-events="none" font-family="sans-serif" dy="1.5625" font-size="25" fill="#FFFFFF"/><text text-anchor="middle" pointer-events="none" font-family="sans-serif" dy="1.5625" font-size="25" fill="#FFFFFF"/><text text-anchor="middle" pointer-events="none" x="0" y="0" font-size="10px" fill="#FFFFFF" font-family="sans-serif"> Keanu</text><text text-anchor="middle" pointer-events="none" x="0" y="10" font-size="10px" fill="#FFFFFF" font-family="sans-serif"> Reeves</text></g><g class="node" transform="translate(-186.13476122250432,75.14010217823825)"><circle class="outline" cx="0" cy="0" r="25" fill="#57C7E3" stroke="#23b3d7" stroke-width="2px"/><text text-anchor="middle" pointer-events="none" font-family="sans-serif" dy="1.5625" font-size="25" fill="#2A2C34"/><text text-anchor="middle" pointer-events="none" x="0" y="5" font-size="10px" fill="#2A2C34" font-family="sans-serif"> Somethi…</text></g><g class="node" transform="translate(-184.11813479415565,171.84642132321773)"><circle class="outline" cx="0" cy="0" r="25" fill="#57C7E3" stroke="#23b3d7" stroke-width="2px"/><text text-anchor="middle" pointer-events="none" font-family="sans-serif" dy="1.5625" font-size="25" fill="#2A2C34"/><text text-anchor="middle" pointer-events="none" font-family="sans-serif" dy="1.5625" font-size="25" fill="#2A2C34"/><text text-anchor="middle" pointer-events="none" x="0" y="0" font-size="10px" fill="#2A2C34" font-family="sans-serif"> The</text><text text-anchor="middle" pointer-events="none" x="0" y="10" font-size="10px" fill="#2A2C34" font-family="sans-serif"> Replac…</text></g><g class="node" transform="translate(-74.25747163084658,12.218471114473417)"><circle class="outline" cx="0" cy="0" r="25" fill="#57C7E3" stroke="#23b3d7" stroke-width="2px"/><text text-anchor="middle" pointer-events="none" font-family="sans-serif" dy="1.5625" font-size="25" fill="#2A2C34"/><text text-anchor="middle" pointer-events="none" font-family="sans-serif" dy="1.5625" font-size="25" fill="#2A2C34"/><text text-anchor="middle" pointer-events="none" x="0" y="0" font-size="10px" fill="#2A2C34" font-family="sans-serif"> Johnny</text><text text-anchor="middle" pointer-events="none" x="0" y="10" font-size="10px" fill="#2A2C34" font-family="sans-serif"> Mnemo…</text></g><g class="node" transform="translate(-113.99055122896986,253.63210624948528)"><circle class="outline" cx="0" cy="0" r="25" fill="#57C7E3" stroke="#23b3d7" stroke-width="2px"/><text text-anchor="middle" pointer-events="none" font-family="sans-serif" dy="1.5625" font-size="25" fill="#2A2C34"/><text text-anchor="middle" pointer-events="none" font-family="sans-serif" dy="1.5625" font-size="25" fill="#2A2C34"/><text text-anchor="middle" pointer-events="none" font-family="sans-serif" dy="1.5625" font-size="25" fill="#2A2C34"/><text text-anchor="middle" pointer-events="none" x="0" y="-5" font-size="10px" fill="#2A2C34" font-family="sans-serif"> The</text><text text-anchor="middle" pointer-events="none" x="0" y="5" font-size="10px" fill="#2A2C34" font-family="sans-serif"> Devil's</text><text text-anchor="middle" pointer-events="none" x="0" y="15" font-size="10px" fill="#2A2C34" font-family="sans-serif"> Advoc…</text></g></g></svg>