<svg xmlns="http://www.w3.org/2000/svg" width="629.6922607421875" height="493.1994934082031" viewBox="-324.70623779296875 -137.03579711914062 629.6922607421875 493.1994934082031"><title>Neo4j Graph Visualization</title><desc>Created using Neo4j (http://www.neo4j.com/)</desc><g class="layer relationships"><g class="relationship" transform="translate(74.04226289713935 97.73109240859226) rotate(408.4313910957575)"><path class="outline" fill="#FFC454" stroke="none" d="M 25 0.5 L 35.209310082239845 0.5 L 35.209310082239845 -0.5 L 25 -0.5 Z M 80.77181008223985 0.5 L 90.98112016447969 0.5 L 90.98112016447969 3.5 L 97.98112016447969 0 L 90.98112016447969 -3.5 L 90.98112016447969 -0.5 L 80.77181008223985 -0.5 Z"/><text text-anchor="middle" pointer-events="none" font-size="8px" fill="#000000" x="57.990560082239845" y="3" font-family="sans-serif">ACTED_IN</text></g><g class="relationship" transform="translate(74.04226289713935 97.73109240859226) rotate(311.7824060212822)"><path class="outline" fill="#FFC454" stroke="none" d="M 25 0.5 L 34.93222508101306 0.5 L 34.93222508101306 -0.5 L 25 -0.5 Z M 80.49472508101306 0.5 L 90.42695016202612 0.5 L 90.42695016202612 3.5 L 97.42695016202612 0 L 90.42695016202612 -3.5 L 90.42695016202612 -0.5 L 80.49472508101306 -0.5 Z"/><text text-anchor="middle" pointer-events="none" font-size="8px" fill="#000000" x="57.71347508101306" y="3" font-family="sans-serif">ACTED_IN</text></g><g class="relationship" transform="translate(74.04226289713935 97.73109240859226) rotate(231.48339892344427)"><path class="outline" fill="#FFC454" stroke="none" d="M 25 0.5 L 54.98895803583248 0.5 L 54.98895803583248 -0.5 L 25 -0.5 Z M 100.55145803583248 0.5 L 130.54041607166496 0.5 L 130.54041607166496 3.5 L 137.54041607166496 0 L 130.54041607166496 -3.5 L 130.54041607166496 -0.5 L 100.55145803583248 -0.5 Z"/><text text-anchor="middle" pointer-events="none" font-size="8px" fill="#000000" x="77.77020803583248" y="3" transform="rotate(180 77.77020803583248 0)" font-family="sans-serif">ACTED_IN</text></g><g class="relationship" transform="translate(74.04226289713935 97.73109240859226) rotate(180.3667082920901)"><path class="outline" fill="#FFC454" stroke="none" d="M 25 0.5 L 33.843482559463965 0.5 L 33.843482559463965 -0.5 L 25 -0.5 Z M 79.40598255946396 0.5 L 88.24946511892793 0.5 L 88.24946511892793 3.5 L 95.24946511892793 0 L 88.24946511892793 -3.5 L 88.24946511892793 -0.5 L 79.40598255946396 -0.5 Z"/><text text-anchor="middle" pointer-events="none" font-size="8px" fill="#000000" x="56.624732559463965" y="3" transform="rotate(180 56.624732559463965 0)" font-family="sans-serif">ACTED_IN</text></g><g class="relationship" transform="translate(74.04226289713935 97.73109240859226) rotate(494.35569476837577)"><path class="outline" fill="#FFC454" stroke="none" d="M 25 0.5 L 57.06004845255276 0.5 L 57.06004845255276 -0.5 L 25 -0.5 Z M 102.62254845255276 0.5 L 134.68259690510553 0.5 L 134.68259690510553 3.5 L 141.68259690510553 0 L 134.68259690510553 -3.5 L 134.68259690510553 -0.5 L 102.62254845255276 -0.5 Z"/><text text-anchor="middle" pointer-events="none" font-size="8px" fill="#000000" x="79.84129845255276" y="3" transform="rotate(180 79.84129845255276 0)" font-family="sans-serif">ACTED_IN</text></g><g class="relationship" transform="translate(240.41634323373856 276.45934133785454) rotate(225.64959499491073)"><path class="outline" fill="#FFC454" stroke="none" d="M 25 0.5 L 34.354426731408225 0.5 L 34.354426731408225 -0.5 L 25 -0.5 Z M 79.91692673140822 0.5 L 89.27135346281645 0.5 L 89.27135346281645 3.5 L 96.27135346281645 0 L 89.27135346281645 -3.5 L 89.27135346281645 -0.5 L 79.91692673140822 -0.5 Z"/><text text-anchor="middle" pointer-events="none" font-size="8px" fill="#000000" x="57.135676731408225" y="3" transform="rotate(180 57.135676731408225 0)" font-family="sans-serif">ACTED_IN</text></g><g class="relationship" transform="translate(146.8441327831067 306.16574405499887) rotate(274.32157554257213)"><path class="outline" fill="#FFC454" stroke="none" d="M 25 0.5 L 32.097171951915634 0.5 L 32.097171951915634 -0.5 L 25 -0.5 Z M 77.65967195191564 0.5 L 84.75684390383127 0.5 L 84.75684390383127 3.5 L 91.75684390383127 0 L 84.75684390383127 -3.5 L 84.75684390383127 -0.5 L 77.65967195191564 -0.5 Z"/><text text-anchor="middle" pointer-events="none" font-size="8px" fill="#000000" x="54.878421951915634" y="3" font-family="sans-serif">ACTED_IN</text></g><g class="relationship" transform="translate(275.9860099116798 190.96071502029153) rotate(180.5807543334298)"><path class="outline" fill="#FFC454" stroke="none" d="M 25 0.5 L 33.89371893823588 0.5 L 33.89371893823588 -0.5 L 25 -0.5 Z M 79.45621893823588 0.5 L 88.34993787647176 0.5 L 88.34993787647176 3.5 L 95.34993787647176 0 L 88.34993787647176 -3.5 L 88.34993787647176 -0.5 L 79.45621893823588 -0.5 Z"/><text text-anchor="middle" pointer-events="none" font-size="8px" fill="#000000" x="56.67496893823588" y="3" transform="rotate(180 56.67496893823588 0)" font-family="sans-serif">ACTED_IN</text></g><g class="relationship" transform="translate(271.5051115543894 37.856712261979666) rotate(195.168037500757)"><path class="outline" fill="#FFC454" stroke="none" d="M 25 0.5 L 33.754924005780964 0.5 L 33.754924005780964 -0.5 L 25 -0.5 Z M 79.31742400578096 0.5 L 88.07234801156193 0.5 L 88.07234801156193 3.5 L 95.07234801156193 0 L 88.07234801156193 -3.5 L 88.07234801156193 -0.5 L 79.31742400578096 -0.5 Z"/><text text-anchor="middle" pointer-events="none" font-size="8px" fill="#000000" x="56.536174005780964" y="3" transform="rotate(180 56.536174005780964 0)" font-family="sans-serif">ACTED_IN</text></g><g class="relationship" transform="translate(264.02948687470086 -49.87065480437836) rotate(512.5525284486794)"><path class="outline" fill="#FFC454" stroke="none" d="M 25 0.5 L 34.80145672466699 0.5 L 34.80145672466699 -0.5 L 25 -0.5 Z M 80.36395672466699 0.5 L 90.16541344933398 0.5 L 90.16541344933398 3.5 L 97.16541344933398 0 L 90.16541344933398 -3.5 L 90.16541344933398 -0.5 L 80.36395672466699 -0.5 Z"/><text text-anchor="middle" pointer-events="none" font-size="8px" fill="#000000" x="57.58270672466699" y="3" transform="rotate(180 57.58270672466699 0)" font-family="sans-serif">ACTED_IN</text></g><g class="relationship" transform="translate(101.16152407769705 -98.74827703412588) rotate(422.6300680850104)"><path class="outline" fill="#FFC454" stroke="none" d="M 25 0.5 L 32.94242051783459 0.5 L 32.94242051783459 -0.5 L 25 -0.5 Z M 78.50492051783459 0.5 L 86.44734103566918 0.5 L 86.44734103566918 3.5 L 93.44734103566918 0 L 86.44734103566918 -3.5 L 86.44734103566918 -0.5 L 78.50492051783459 -0.5 Z"/><text text-anchor="middle" pointer-events="none" font-size="8px" fill="#000000" x="55.72367051783459" y="3" font-family="sans-serif">ACTED_IN</text></g><g class="relationship" transform="translate(193.11193696322428 -108.0357931123513) rotate(468.136083300652)"><path class="outline" fill="#FFC454" stroke="none" d="M 25 0.5 L 33.948721311639524 0.5 L 33.948721311639524 -0.5 L 25 -0.5 Z M 79.51122131163953 0.5 L 88.45994262327905 0.5 L 88.45994262327905 3.5 L 95.45994262327905 0 L 88.45994262327905 -3.5 L 88.45994262327905 -0.5 L 79.51122131163953 -0.5 Z"/><text text-anchor="middle" pointer-events="none" font-size="8px" fill="#000000" x="56.729971311639524" y="3" transform="rotate(180 56.729971311639524 0)" font-family="sans-serif">ACTED_IN</text></g><g class="relationship" transform="translate(-286.9251653332843 -23.649713282974254) rotate(358.7218602256322)"><path class="outline" fill="#FFC454" stroke="none" d="M 25 0.5 L 103.62446525413924 0.5 L 103.62446525413924 -0.5 L 25 -0.5 Z M 149.18696525413924 0.5 L 227.81143050827848 0.5 L 227.81143050827848 3.5 L 234.81143050827848 0 L 227.81143050827848 -3.5 L 227.81143050827848 -0.5 L 149.18696525413924 -0.5 Z"/><text text-anchor="middle" pointer-events="none" font-size="8px" fill="#000000" x="126.40571525413924" y="3" font-family="sans-serif">ACTED_IN</text></g><g class="relationship" transform="translate(-286.9251653332843 -23.649713282974254) rotate(386.6128193906186)"><path class="outline" fill="#FFC454" stroke="none" d="M 25 0.5 L 108.34172425242579 0.5 L 108.34172425242579 -0.5 L 25 -0.5 Z M 153.9042242524258 0.5 L 237.24594850485158 0.5 L 237.24594850485158 3.5 L 244.24594850485158 0 L 237.24594850485158 -3.5 L 237.24594850485158 -0.5 L 153.9042242524258 -0.5 Z"/><text text-anchor="middle" pointer-events="none" font-size="8px" fill="#000000" x="131.1229742524258" y="3" font-family="sans-serif">ACTED_IN</text></g><g class="relationship" transform="translate(-286.9251653332843 -23.649713282974254) rotate(404.54202794424293)"><path class="outline" fill="#FFC454" stroke="none" d="M 25 0.5 L 145.19725518997038 0.5 L 145.19725518997038 -0.5 L 25 -0.5 Z M 190.75975518997038 0.5 L 310.95701037994075 0.5 L 310.95701037994075 3.5 L 317.95701037994075 0 L 310.95701037994075 -3.5 L 310.95701037994075 -0.5 L 190.75975518997038 -0.5 Z"/><text text-anchor="middle" pointer-events="none" font-size="8px" fill="#000000" x="167.97850518997038" y="3" font-family="sans-serif">ACTED_IN</text></g><g class="relationship" transform="translate(-295.7062405750661 91.70913238276265) rotate(335.7160962854837)"><path class="outline" fill="#FFC454" stroke="none" d="M 25 0.5 L 121.01568363152737 0.5 L 121.01568363152737 -0.5 L 25 -0.5 Z M 166.57818363152737 0.5 L 262.59386726305473 0.5 L 262.59386726305473 3.5 L 269.59386726305473 0 L 262.59386726305473 -3.5 L 262.59386726305473 -0.5 L 166.57818363152737 -0.5 Z"/><text text-anchor="middle" pointer-events="none" font-size="8px" fill="#000000" x="143.79693363152737" y="3" font-family="sans-serif">ACTED_IN</text></g><g class="relationship" transform="translate(-295.7062405750661 91.70913238276265) rotate(361.20597381203004)"><path class="outline" fill="#FFC454" stroke="none" d="M 25 0.5 L 98.49713972588786 0.5 L 98.49713972588786 -0.5 L 25 -0.5 Z M 144.05963972588785 0.5 L 217.55677945177572 0.5 L 217.55677945177572 3.5 L 224.55677945177572 0 L 217.55677945177572 -3.5 L 217.55677945177572 -0.5 L 144.05963972588785 -0.5 Z"/><text text-anchor="middle" pointer-events="none" font-size="8px" fill="#000000" x="121.27838972588786" y="3" font-family="sans-serif">ACTED_IN</text></g><g class="relationship" transform="translate(-295.7062405750661 91.70913238276265) rotate(386.3097606748635)"><path class="outline" fill="#FFC454" stroke="none" d="M 25 0.5 L 114.95917571680917 0.5 L 114.95917571680917 -0.5 L 25 -0.5 Z M 160.52167571680917 0.5 L 250.48085143361834 0.5 L 250.48085143361834 3.5 L 257.48085143361834 0 L 250.48085143361834 -3.5 L 250.48085143361834 -0.5 L 160.52167571680917 -0.5 Z"/><text text-anchor="middle" pointer-events="none" font-size="8px" fill="#000000" x="137.74042571680917" y="3" font-family="sans-serif">ACTED_IN</text></g><g class="relationship" transform="translate(-247.51696143459253 215.8526166400373) rotate(311.93176303693366)"><path class="outline" fill="#FFC454" stroke="none" d="M 25 0.5 L 138.58235418501405 0.5 L 138.58235418501405 -0.5 L 25 -0.5 Z M 184.14485418501405 0.5 L 297.7272083700281 0.5 L 297.7272083700281 3.5 L 304.7272083700281 0 L 297.7272083700281 -3.5 L 297.7272083700281 -0.5 L 184.14485418501405 -0.5 Z"/><text text-anchor="middle" pointer-events="none" font-size="8px" fill="#000000" x="161.36360418501405" y="3" font-family="sans-serif">ACTED_IN</text></g><g class="relationship" transform="translate(-247.51696143459253 215.8526166400373) rotate(329.434713709848)"><path class="outline" fill="#FFC454" stroke="none" d="M 25 0.5 L 90.61797558458714 0.5 L 90.61797558458714 -0.5 L 25 -0.5 Z M 136.18047558458716 0.5 L 201.79845116917429 0.5 L 201.79845116917429 3.5 L 208.79845116917429 0 L 201.79845116917429 -3.5 L 201.79845116917429 -0.5 L 136.18047558458716 -0.5 Z"/><text text-anchor="middle" pointer-events="none" font-size="8px" fill="#000000" x="113.39922558458714" y="3" font-family="sans-serif">ACTED_IN</text></g><g class="relationship" transform="translate(-247.51696143459253 215.8526166400373) rotate(360.2958753015016)"><path class="outline" fill="#FFC454" stroke="none" d="M 25 0.5 L 76.23493976074087 0.5 L 76.23493976074087 -0.5 L 25 -0.5 Z M 121.79743976074087 0.5 L 173.03237952148174 0.5 L 173.03237952148174 3.5 L 180.03237952148174 0 L 173.03237952148174 -3.5 L 173.03237952148174 -0.5 L 121.79743976074087 -0.5 Z"/><text text-anchor="middle" pointer-events="none" font-size="8px" fill="#000000" x="99.01618976074087" y="3" font-family="sans-serif">ACTED_IN</text></g><g class="relationship" transform="translate(-39.16564747320342 327.16370094667894) rotate(268.2743215833765)"><path class="outline" fill="#FFC454" stroke="none" d="M 25 0.5 L 28.869914119524367 0.5 L 28.869914119524367 -0.5 L 25 -0.5 Z M 74.43241411952437 0.5 L 78.30232823904873 0.5 L 78.30232823904873 3.5 L 85.30232823904873 0 L 78.30232823904873 -3.5 L 78.30232823904873 -0.5 L 74.43241411952437 -0.5 Z"/><text text-anchor="middle" pointer-events="none" font-size="8px" fill="#000000" x="51.65116411952437" y="3" transform="rotate(180 51.65116411952437 0)" font-family="sans-serif">ACTED_IN</text></g></g><g class="layer nodes"><g class="node" transform="translate(74.04226289713935,97.73109240859226)"><circle class="outline" cx="0" cy="0" r="25" fill="#F79767" stroke="#f36924" stroke-width="2px"/><text text-anchor="middle" pointer-events="none" font-family="sans-serif" dy="1.5625" font-size="25" fill="#FFFFFF"/><text text-anchor="middle" pointer-events="none" font-family="sans-serif" dy="1.5625" font-size="25" fill="#FFFFFF"/><text text-anchor="middle" pointer-events="none" x="0" y="0" font-size="10px" fill="#FFFFFF" font-family="sans-serif"> Hugo</text><text text-anchor="middle" pointer-events="none" x="0" y="10" font-size="10px" fill="#FFFFFF" font-family="sans-serif"> Weaving</text></g><g class="node" transform="translate(155.6422543598942,189.74085988025)"><circle class="outline" cx="0" cy="0" r="25" fill="#57C7E3" stroke="#23b3d7" stroke-width="2px"/><text text-anchor="middle" pointer-events="none" font-family="sans-serif" dy="1.5625" font-size="25" fill="#2A2C34"/><text text-anchor="middle" pointer-events="none" font-family="sans-serif" dy="1.5625" font-size="25" fill="#2A2C34"/><text text-anchor="middle" pointer-events="none" x="0" y="0" font-size="10px" fill="#2A2C34" font-family="sans-serif"> Cloud</text><text text-anchor="middle" pointer-events="none" x="0" y="10" font-size="10px" fill="#2A2C34" font-family="sans-serif"> Atlas</text></g><g class="node" transform="translate(240.41634323373856,276.45934133785454)"><circle class="outline" cx="0" cy="0" r="25" fill="#F79767" stroke="#f36924" stroke-width="2px"/><text text-anchor="middle" pointer-events="none" font-family="sans-serif" dy="1.5625" font-size="25" fill="#FFFFFF"/><text text-anchor="middle" pointer-events="none" font-family="sans-serif" dy="1.5625" font-size="25" fill="#FFFFFF"/><text text-anchor="middle" pointer-events="none" x="0" y="0" font-size="10px" fill="#FFFFFF" font-family="sans-serif"> Tom</text><text text-anchor="middle" pointer-events="none" x="0" y="10" font-size="10px" fill="#FFFFFF" font-family="sans-serif"> Hanks</text></g><g class="node" transform="translate(146.8441327831067,306.16574405499887)"><circle class="outline" cx="0" cy="0" r="25" fill="#F79767" stroke="#f36924" stroke-width="2px"/><text text-anchor="middle" pointer-events="none" font-family="sans-serif" dy="1.5625" font-size="25" fill="#FFFFFF"/><text text-anchor="middle" pointer-events="none" font-family="sans-serif" dy="1.5625" font-size="25" fill="#FFFFFF"/><text text-anchor="middle" pointer-events="none" x="0" y="0" font-size="10px" fill="#FFFFFF" font-family="sans-serif"> Jim</text><text text-anchor="middle" pointer-events="none" x="0" y="10" font-size="10px" fill="#FFFFFF" font-family="sans-serif"> Broadb…</text></g><g class="node" transform="translate(275.9860099116798,190.96071502029153)"><circle class="outline" cx="0" cy="0" r="25" fill="#F79767" stroke="#f36924" stroke-width="2px"/><text text-anchor="middle" pointer-events="none" font-family="sans-serif" dy="1.5625" font-size="25" fill="#FFFFFF"/><text text-anchor="middle" pointer-events="none" font-family="sans-serif" dy="1.5625" font-size="25" fill="#FFFFFF"/><text text-anchor="middle" pointer-events="none" x="0" y="0" font-size="10px" fill="#FFFFFF" font-family="sans-serif"> Halle</text><text text-anchor="middle" pointer-events="none" x="0" y="10" font-size="10px" fill="#FFFFFF" font-family="sans-serif"> Berry</text></g><g class="node" transform="translate(155.61577114712867,6.439686034475359)"><circle class="outline" cx="0" cy="0" r="25" fill="#57C7E3" stroke="#23b3d7" stroke-width="2px"/><text text-anchor="middle" pointer-events="none" font-family="sans-serif" dy="1.5625" font-size="25" fill="#2A2C34"/><text text-anchor="middle" pointer-events="none" font-family="sans-serif" dy="1.5625" font-size="25" fill="#2A2C34"/><text text-anchor="middle" pointer-events="none" x="0" y="0" font-size="10px" fill="#2A2C34" font-family="sans-serif"> V for</text><text text-anchor="middle" pointer-events="none" x="0" y="10" font-size="10px" fill="#2A2C34" font-family="sans-serif"> Vendetta</text></g><g class="node" transform="translate(271.5051115543894,37.856712261979666)"><circle class="outline" cx="0" cy="0" r="25" fill="#F79767" stroke="#f36924" stroke-width="2px"/><text text-anchor="middle" pointer-events="none" font-family="sans-serif" dy="1.5625" font-size="25" fill="#FFFFFF"/><text text-anchor="middle" pointer-events="none" x="0" y="5" font-size="10px" fill="#FFFFFF" font-family="sans-serif"> John Hurt</text></g><g class="node" transform="translate(264.02948687470086,-49.87065480437836)"><circle class="outline" cx="0" cy="0" r="25" fill="#F79767" stroke="#f36924" stroke-width="2px"/><text text-anchor="middle" pointer-events="none" font-family="sans-serif" dy="1.5625" font-size="25" fill="#FFFFFF"/><text text-anchor="middle" pointer-events="none" font-family="sans-serif" dy="1.5625" font-size="25" fill="#FFFFFF"/><text text-anchor="middle" pointer-events="none" x="0" y="0" font-size="10px" fill="#FFFFFF" font-family="sans-serif"> Stephen</text><text text-anchor="middle" pointer-events="none" x="0" y="10" font-size="10px" fill="#FFFFFF" font-family="sans-serif"> Rea</text></g><g class="node" transform="translate(101.16152407769705,-98.74827703412588)"><circle class="outline" cx="0" cy="0" r="25" fill="#F79767" stroke="#f36924" stroke-width="2px"/><text text-anchor="middle" pointer-events="none" font-family="sans-serif" dy="1.5625" font-size="25" fill="#FFFFFF"/><text text-anchor="middle" pointer-events="none" font-family="sans-serif" dy="1.5625" font-size="25" fill="#FFFFFF"/><text text-anchor="middle" pointer-events="none" x="0" y="0" font-size="10px" fill="#FFFFFF" font-family="sans-serif"> Natalie</text><text text-anchor="middle" pointer-events="none" x="0" y="10" font-size="10px" fill="#FFFFFF" font-family="sans-serif"> Portman</text></g><g class="node" transform="translate(193.11193696322428,-108.0357931123513)"><circle class="outline" cx="0" cy="0" r="25" fill="#F79767" stroke="#f36924" stroke-width="2px"/><text text-anchor="middle" pointer-events="none" font-family="sans-serif" dy="1.5625" font-size="25" fill="#FFFFFF"/><text text-anchor="middle" pointer-events="none" x="0" y="5" font-size="10px" fill="#FFFFFF" font-family="sans-serif"> Ben Miles</text></g><g class="node" transform="translate(-27.178377851787076,-29.445040348803452)"><circle class="outline" cx="0" cy="0" r="25" fill="#57C7E3" stroke="#23b3d7" stroke-width="2px"/><text text-anchor="middle" pointer-events="none" font-family="sans-serif" dy="1.5625" font-size="25" fill="#2A2C34"/><text text-anchor="middle" pointer-events="none" font-family="sans-serif" dy="1.5625" font-size="25" fill="#2A2C34"/><text text-anchor="middle" pointer-events="none" font-family="sans-serif" dy="1.5625" font-size="25" fill="#2A2C34"/><text text-anchor="middle" pointer-events="none" x="0" y="-5" font-size="10px" fill="#2A2C34" font-family="sans-serif"> The</text><text text-anchor="middle" pointer-events="none" x="0" y="5" font-size="10px" fill="#2A2C34" font-family="sans-serif"> Matrix</text><text text-anchor="middle" pointer-events="none" x="0" y="15" font-size="10px" fill="#2A2C34" font-family="sans-serif"> Revol…</text></g><g class="node" transform="translate(-286.9251653332843,-23.649713282974254)"><circle class="outline" cx="0" cy="0" r="25" fill="#F79767" stroke="#f36924" stroke-width="2px"/><text text-anchor="middle" pointer-events="none" font-family="sans-serif" dy="1.5625" font-size="25" fill="#FFFFFF"/><text text-anchor="middle" pointer-events="none" font-family="sans-serif" dy="1.5625" font-size="25" fill="#FFFFFF"/><text text-anchor="middle" pointer-events="none" x="0" y="0" font-size="10px" fill="#FFFFFF" font-family="sans-serif"> Laurence</text><text text-anchor="middle" pointer-events="none" x="0" y="10" font-size="10px" fill="#FFFFFF" font-family="sans-serif"> Fishbur…</text></g><g class="node" transform="translate(-295.7062405750661,91.70913238276265)"><circle class="outline" cx="0" cy="0" r="25" fill="#F79767" stroke="#f36924" stroke-width="2px"/><text text-anchor="middle" pointer-events="none" font-family="sans-serif" dy="1.5625" font-size="25" fill="#FFFFFF"/><text text-anchor="middle" pointer-events="none" x="0" y="5" font-size="10px" fill="#FFFFFF" font-family="sans-serif"> Carrie-A…</text></g><g class="node" transform="translate(-247.51696143459253,215.8526166400373)"><circle class="outline" cx="0" cy="0" r="25" fill="#F79767" stroke="#f36924" stroke-width="2px"/><text text-anchor="middle" pointer-events="none" font-family="sans-serif" dy="1.5625" font-size="25" fill="#FFFFFF"/><text text-anchor="middle" pointer-events="none" font-family="sans-serif" dy="1.5625" font-size="25" fill="#FFFFFF"/><text text-anchor="middle" pointer-events="none" x="0" y="0" font-size="10px" fill="#FFFFFF" font-family="sans-serif"> Keanu</text><text text-anchor="middle" pointer-events="none" x="0" y="10" font-size="10px" fill="#FFFFFF" font-family="sans-serif"> Reeves</text></g><g class="node" transform="translate(-46.204739315593514,96.96146896866703)"><circle class="outline" cx="0" cy="0" r="25" fill="#57C7E3" stroke="#23b3d7" stroke-width="2px"/><text text-anchor="middle" pointer-events="none" font-family="sans-serif" dy="1.5625" font-size="25" fill="#2A2C34"/><text text-anchor="middle" pointer-events="none" font-family="sans-serif" dy="1.5625" font-size="25" fill="#2A2C34"/><text text-anchor="middle" pointer-events="none" font-family="sans-serif" dy="1.5625" font-size="25" fill="#2A2C34"/><text text-anchor="middle" pointer-events="none" x="0" y="-5" font-size="10px" fill="#2A2C34" font-family="sans-serif"> The</text><text text-anchor="middle" pointer-events="none" x="0" y="5" font-size="10px" fill="#2A2C34" font-family="sans-serif"> Matrix</text><text text-anchor="middle" pointer-events="none" x="0" y="15" font-size="10px" fill="#2A2C34" font-family="sans-serif"> Reloa…</text></g><g class="node" transform="translate(-42.48731569368623,216.91139877031674)"><circle class="outline" cx="0" cy="0" r="25" fill="#57C7E3" stroke="#23b3d7" stroke-width="2px"/><text text-anchor="middle" pointer-events="none" font-family="sans-serif" dy="1.5625" font-size="25" fill="#2A2C34"/><text text-anchor="middle" pointer-events="none" font-family="sans-serif" dy="1.5625" font-size="25" fill="#2A2C34"/><text text-anchor="middle" pointer-events="none" x="0" y="0" font-size="10px" fill="#2A2C34" font-family="sans-serif"> The</text><text text-anchor="middle" pointer-events="none" x="0" y="10" font-size="10px" fill="#2A2C34" font-family="sans-serif"> Matrix</text></g><g class="node" transform="translate(-39.16564747320342,327.16370094667894)"><circle class="outline" cx="0" cy="0" r="25" fill="#F79767" stroke="#f36924" stroke-width="2px"/><text text-anchor="middle" pointer-events="none" font-family="sans-serif" dy="1.5625" font-size="25" fill="#FFFFFF"/><text text-anchor="middle" pointer-events="none" font-family="sans-serif" dy="1.5625" font-size="25" fill="#FFFFFF"/><text text-anchor="middle" pointer-events="none" x="0" y="0" font-size="10px" fill="#FFFFFF" font-family="sans-serif"> Emil</text><text text-anchor="middle" pointer-events="none" x="0" y="10" font-size="10px" fill="#FFFFFF" font-family="sans-serif"> Eifrem</text></g></g></svg>