<svg xmlns="http://www.w3.org/2000/svg" width="463.261474609375" height="229.7548828125" viewBox="-180.96832275390625 -50.00623321533203 463.261474609375 229.7548828125"><title>Neo4j Graph Visualization</title><desc>Created using Neo4j (http://www.neo4j.com/)</desc><g class="layer relationships"><g class="relationship" transform="translate(253.29316719492203 58.64469162259158) rotate(512.6985025342397)"><path class="outline" fill="#FFC454" stroke="none" d="M 25 0.5 L 74.12146481255093 0.5 L 74.12146481255093 -0.5 L 25 -0.5 Z M 119.68396481255093 0.5 L 168.80542962510185 0.5 L 168.80542962510185 3.5 L 175.80542962510185 0 L 168.80542962510185 -3.5 L 168.80542962510185 -0.5 L 119.68396481255093 -0.5 Z"/><text text-anchor="middle" pointer-events="none" font-size="8px" fill="#000000" x="96.90271481255093" y="3" transform="rotate(180 96.90271481255093 0)" font-family="sans-serif">ACTED_IN</text></g><g class="relationship" transform="translate(253.29316719492203 58.64469162259158) rotate(539.5189379554388)"><path class="outline" fill="#FFC454" stroke="none" d="M 25 0.5 L 71.09245551291342 0.5 L 71.09245551291342 -0.5 L 25 -0.5 Z M 116.65495551291342 0.5 L 162.74741102582684 0.5 L 162.74741102582684 3.5 L 169.74741102582684 0 L 162.74741102582684 -3.5 L 162.74741102582684 -0.5 L 116.65495551291342 -0.5 Z"/><text text-anchor="middle" pointer-events="none" font-size="8px" fill="#000000" x="93.87370551291342" y="3" transform="rotate(180 93.87370551291342 0)" font-family="sans-serif">ACTED_IN</text></g><g class="relationship" transform="translate(253.29316719492203 58.64469162259158) rotate(202.72711562200345)"><path class="outline" fill="#FFC454" stroke="none" d="M 25 0.5 L 76.80202875148065 0.5 L 76.80202875148065 -0.5 L 25 -0.5 Z M 122.36452875148065 0.5 L 174.1665575029613 0.5 L 174.1665575029613 3.5 L 181.1665575029613 0 L 174.1665575029613 -3.5 L 174.1665575029613 -0.5 L 122.36452875148065 -0.5 Z"/><text text-anchor="middle" pointer-events="none" font-size="8px" fill="#000000" x="99.58327875148065" y="3" transform="rotate(180 99.58327875148065 0)" font-family="sans-serif">ACTED_IN</text></g><g class="relationship" transform="translate(-151.9683255759403 62.25951758231609) rotate(381.31181539489614)"><path class="outline" fill="#FFC454" stroke="none" d="M 25 0.5 L 95.45595821590082 0.5 L 95.45595821590082 -0.5 L 25 -0.5 Z M 141.0184582159008 0.5 L 211.47441643180164 0.5 L 211.47441643180164 3.5 L 218.47441643180164 0 L 211.47441643180164 -3.5 L 211.47441643180164 -0.5 L 141.0184582159008 -0.5 Z"/><text text-anchor="middle" pointer-events="none" font-size="8px" fill="#000000" x="118.23720821590082" y="3" font-family="sans-serif">ACTED_IN</text></g><g class="relationship" transform="translate(-151.9683255759403 62.25951758231609) rotate(359.4612106643084)"><path class="outline" fill="#FFC454" stroke="none" d="M 25 0.5 L 78.98387721029677 0.5 L 78.98387721029677 -0.5 L 25 -0.5 Z M 124.54637721029677 0.5 L 178.53025442059354 0.5 L 178.53025442059354 3.5 L 185.53025442059354 0 L 178.53025442059354 -3.5 L 178.53025442059354 -0.5 L 124.54637721029677 -0.5 Z"/><text text-anchor="middle" pointer-events="none" font-size="8px" fill="#000000" x="101.76512721029677" y="3" font-family="sans-serif">ACTED_IN</text></g><g class="relationship" transform="translate(-151.9683255759403 62.25951758231609) rotate(338.83869351218095)"><path class="outline" fill="#FFC454" stroke="none" d="M 25 0.5 L 89.04691368935319 0.5 L 89.04691368935319 -0.5 L 25 -0.5 Z M 134.60941368935318 0.5 L 198.65632737870638 0.5 L 198.65632737870638 3.5 L 205.65632737870638 0 L 198.65632737870638 -3.5 L 198.65632737870638 -0.5 L 134.60941368935318 -0.5 Z"/><text text-anchor="middle" pointer-events="none" font-size="8px" fill="#000000" x="111.82816368935319" y="3" font-family="sans-serif">ACTED_IN</text></g></g><g class="layer nodes"><g class="node" transform="translate(253.29316719492203,58.64469162259158)"><circle class="outline" cx="0" cy="0" r="25" fill="#F79767" stroke="#f36924" stroke-width="2px"/><text text-anchor="middle" pointer-events="none" font-family="sans-serif" dy="1.5625" font-size="25" fill="#FFFFFF"/><text text-anchor="middle" pointer-events="none" font-family="sans-serif" dy="1.5625" font-size="25" fill="#FFFFFF"/><text text-anchor="middle" pointer-events="none" x="0" y="0" font-size="10px" fill="#FFFFFF" font-family="sans-serif"> Keanu</text><text text-anchor="middle" pointer-events="none" x="0" y="10" font-size="10px" fill="#FFFFFF" font-family="sans-serif"> Reeves</text></g><g class="node" transform="translate(74.85640916127142,150.74867606062855)"><circle class="outline" cx="0" cy="0" r="25" fill="#57C7E3" stroke="#23b3d7" stroke-width="2px"/><text text-anchor="middle" pointer-events="none" font-family="sans-serif" dy="1.5625" font-size="25" fill="#2A2C34"/><text text-anchor="middle" pointer-events="none" font-family="sans-serif" dy="1.5625" font-size="25" fill="#2A2C34"/><text text-anchor="middle" pointer-events="none" font-family="sans-serif" dy="1.5625" font-size="25" fill="#2A2C34"/><text text-anchor="middle" pointer-events="none" x="0" y="-5" font-size="10px" fill="#2A2C34" font-family="sans-serif"> The</text><text text-anchor="middle" pointer-events="none" x="0" y="5" font-size="10px" fill="#2A2C34" font-family="sans-serif"> Matrix</text><text text-anchor="middle" pointer-events="none" x="0" y="15" font-size="10px" fill="#2A2C34" font-family="sans-serif"> Revol…</text></g><g class="node" transform="translate(-151.9683255759403,62.25951758231609)"><circle class="outline" cx="0" cy="0" r="25" fill="#F79767" stroke="#f36924" stroke-width="2px"/><text text-anchor="middle" pointer-events="none" font-family="sans-serif" dy="1.5625" font-size="25" fill="#FFFFFF"/><text text-anchor="middle" pointer-events="none" font-family="sans-serif" dy="1.5625" font-size="25" fill="#FFFFFF"/><text text-anchor="middle" pointer-events="none" x="0" y="0" font-size="10px" fill="#FFFFFF" font-family="sans-serif"> Hugo</text><text text-anchor="middle" pointer-events="none" x="0" y="10" font-size="10px" fill="#FFFFFF" font-family="sans-serif"> Weaving</text></g><g class="node" transform="translate(58.552620466103946,60.279794378799195)"><circle class="outline" cx="0" cy="0" r="25" fill="#57C7E3" stroke="#23b3d7" stroke-width="2px"/><text text-anchor="middle" pointer-events="none" font-family="sans-serif" dy="1.5625" font-size="25" fill="#2A2C34"/><text text-anchor="middle" pointer-events="none" font-family="sans-serif" dy="1.5625" font-size="25" fill="#2A2C34"/><text text-anchor="middle" pointer-events="none" font-family="sans-serif" dy="1.5625" font-size="25" fill="#2A2C34"/><text text-anchor="middle" pointer-events="none" x="0" y="-5" font-size="10px" fill="#2A2C34" font-family="sans-serif"> The</text><text text-anchor="middle" pointer-events="none" x="0" y="5" font-size="10px" fill="#2A2C34" font-family="sans-serif"> Matrix</text><text text-anchor="middle" pointer-events="none" x="0" y="15" font-size="10px" fill="#2A2C34" font-family="sans-serif"> Reloa…</text></g><g class="node" transform="translate(63.13433917742418,-21.0062315335999)"><circle class="outline" cx="0" cy="0" r="25" fill="#57C7E3" stroke="#23b3d7" stroke-width="2px"/><text text-anchor="middle" pointer-events="none" font-family="sans-serif" dy="1.5625" font-size="25" fill="#2A2C34"/><text text-anchor="middle" pointer-events="none" font-family="sans-serif" dy="1.5625" font-size="25" fill="#2A2C34"/><text text-anchor="middle" pointer-events="none" x="0" y="0" font-size="10px" fill="#2A2C34" font-family="sans-serif"> The</text><text text-anchor="middle" pointer-events="none" x="0" y="10" font-size="10px" fill="#2A2C34" font-family="sans-serif"> Matrix</text></g></g></svg>