<svg xmlns="http://www.w3.org/2000/svg" width="257.571044921875" height="257.7543640136719" viewBox="-18.321035385131836 -22.678434371948242 257.571044921875 257.7543640136719"><title>Neo4j Graph Visualization</title><desc>Created using Neo4j (http://www.neo4j.com/)</desc><g class="layer relationships"><g class="relationship" transform="translate(112.70472120514312 117.50351277756864) rotate(413.92980586135644)"><path class="outline" fill="#FFC454" stroke="none" d="M 25 0.5 L 28.508318593769488 0.5 L 28.508318593769488 -0.5 L 25 -0.5 Z M 74.07081859376949 0.5 L 77.57913718753898 0.5 L 77.57913718753898 3.5 L 84.57913718753898 0 L 77.57913718753898 -3.5 L 77.57913718753898 -0.5 L 74.07081859376949 -0.5 Z"/><text text-anchor="middle" pointer-events="none" font-size="8px" fill="#000000" x="51.28956859376949" y="3" font-family="sans-serif">ACTED_IN</text></g><g class="relationship" transform="translate(112.70472120514312 117.50351277756864) rotate(330.60028426269173)"><path class="outline" fill="#FFC454" stroke="none" d="M 25 0.5 L 29.700989713384892 0.5 L 29.700989713384892 -0.5 L 25 -0.5 Z M 75.2634897133849 0.5 L 79.96447942676978 0.5 L 79.96447942676978 3.5 L 86.96447942676978 0 L 79.96447942676978 -3.5 L 79.96447942676978 -0.5 L 75.2634897133849 -0.5 Z"/><text text-anchor="middle" pointer-events="none" font-size="8px" fill="#000000" x="52.48223971338489" y="3" font-family="sans-serif">ACTED_IN</text></g><g class="relationship" transform="translate(112.70472120514312 117.50351277756864) rotate(263.8373640165358)"><path class="outline" fill="#FFC454" stroke="none" d="M 25 0.5 L 29.63284068126368 0.5 L 29.63284068126368 -0.5 L 25 -0.5 Z M 75.19534068126367 0.5 L 79.82818136252736 0.5 L 79.82818136252736 3.5 L 86.82818136252736 0 L 79.82818136252736 -3.5 L 79.82818136252736 -0.5 L 75.19534068126367 -0.5 Z"/><text text-anchor="middle" pointer-events="none" font-size="8px" fill="#000000" x="52.41409068126368" y="3" transform="rotate(180 52.41409068126368 0)" font-family="sans-serif">ACTED_IN</text></g><g class="relationship" transform="translate(112.70472120514312 117.50351277756864) rotate(204.14322293098297)"><path class="outline" fill="#FFC454" stroke="none" d="M 25 0.5 L 29.62168848242048 0.5 L 29.62168848242048 -0.5 L 25 -0.5 Z M 75.18418848242048 0.5 L 79.80587696484096 0.5 L 79.80587696484096 3.5 L 86.80587696484096 0 L 79.80587696484096 -3.5 L 79.80587696484096 -0.5 L 75.18418848242048 -0.5 Z"/><text text-anchor="middle" pointer-events="none" font-size="8px" fill="#000000" x="52.40293848242048" y="3" transform="rotate(180 52.40293848242048 0)" font-family="sans-serif">ACTED_IN</text></g><g class="relationship" transform="translate(112.70472120514312 117.50351277756864) rotate(497.3339065899098)"><path class="outline" fill="#FFC454" stroke="none" d="M 25 0.5 L 29.67698354084397 0.5 L 29.67698354084397 -0.5 L 25 -0.5 Z M 75.23948354084396 0.5 L 79.91646708168794 0.5 L 79.91646708168794 3.5 L 86.91646708168794 0 L 79.91646708168794 -3.5 L 79.91646708168794 -0.5 L 75.23948354084396 -0.5 Z"/><text text-anchor="middle" pointer-events="none" font-size="8px" fill="#000000" x="52.45823354084397" y="3" transform="rotate(180 52.45823354084397 0)" font-family="sans-serif">ACTED_IN</text></g></g><g class="layer nodes"><g class="node" transform="translate(112.70472120514312,117.50351277756864)"><circle class="outline" cx="0" cy="0" r="25" fill="#F79767" stroke="#f36924" stroke-width="2px"/><text text-anchor="middle" pointer-events="none" font-family="sans-serif" dy="1.5625" font-size="25" fill="#FFFFFF"/><text text-anchor="middle" pointer-events="none" font-family="sans-serif" dy="1.5625" font-size="25" fill="#FFFFFF"/><text text-anchor="middle" pointer-events="none" x="0" y="0" font-size="10px" fill="#FFFFFF" font-family="sans-serif"> Hugo</text><text text-anchor="middle" pointer-events="none" x="0" y="10" font-size="10px" fill="#FFFFFF" font-family="sans-serif"> Weaving</text></g><g class="node" transform="translate(177.22228212003742,206.07592180181496)"><circle class="outline" cx="0" cy="0" r="25" fill="#57C7E3" stroke="#23b3d7" stroke-width="2px"/><text text-anchor="middle" pointer-events="none" font-family="sans-serif" dy="1.5625" font-size="25" fill="#2A2C34"/><text text-anchor="middle" pointer-events="none" font-family="sans-serif" dy="1.5625" font-size="25" fill="#2A2C34"/><text text-anchor="middle" pointer-events="none" x="0" y="0" font-size="10px" fill="#2A2C34" font-family="sans-serif"> Cloud</text><text text-anchor="middle" pointer-events="none" x="0" y="10" font-size="10px" fill="#2A2C34" font-family="sans-serif"> Atlas</text></g><g class="node" transform="translate(210.24999472833883,62.54021350803347)"><circle class="outline" cx="0" cy="0" r="25" fill="#57C7E3" stroke="#23b3d7" stroke-width="2px"/><text text-anchor="middle" pointer-events="none" font-family="sans-serif" dy="1.5625" font-size="25" fill="#2A2C34"/><text text-anchor="middle" pointer-events="none" font-family="sans-serif" dy="1.5625" font-size="25" fill="#2A2C34"/><text text-anchor="middle" pointer-events="none" x="0" y="0" font-size="10px" fill="#2A2C34" font-family="sans-serif"> V for</text><text text-anchor="middle" pointer-events="none" x="0" y="10" font-size="10px" fill="#2A2C34" font-family="sans-serif"> Vendetta</text></g><g class="node" transform="translate(100.6998516496405,6.321566159398301)"><circle class="outline" cx="0" cy="0" r="25" fill="#57C7E3" stroke="#23b3d7" stroke-width="2px"/><text text-anchor="middle" pointer-events="none" font-family="sans-serif" dy="1.5625" font-size="25" fill="#2A2C34"/><text text-anchor="middle" pointer-events="none" font-family="sans-serif" dy="1.5625" font-size="25" fill="#2A2C34"/><text text-anchor="middle" pointer-events="none" font-family="sans-serif" dy="1.5625" font-size="25" fill="#2A2C34"/><text text-anchor="middle" pointer-events="none" x="0" y="-5" font-size="10px" fill="#2A2C34" font-family="sans-serif"> The</text><text text-anchor="middle" pointer-events="none" x="0" y="5" font-size="10px" fill="#2A2C34" font-family="sans-serif"> Matrix</text><text text-anchor="middle" pointer-events="none" x="0" y="15" font-size="10px" fill="#2A2C34" font-family="sans-serif"> Revol…</text></g><g class="node" transform="translate(10.678964918262677,71.7727881171477)"><circle class="outline" cx="0" cy="0" r="25" fill="#57C7E3" stroke="#23b3d7" stroke-width="2px"/><text text-anchor="middle" pointer-events="none" font-family="sans-serif" dy="1.5625" font-size="25" fill="#2A2C34"/><text text-anchor="middle" pointer-events="none" font-family="sans-serif" dy="1.5625" font-size="25" fill="#2A2C34"/><text text-anchor="middle" pointer-events="none" font-family="sans-serif" dy="1.5625" font-size="25" fill="#2A2C34"/><text text-anchor="middle" pointer-events="none" x="0" y="-5" font-size="10px" fill="#2A2C34" font-family="sans-serif"> The</text><text text-anchor="middle" pointer-events="none" x="0" y="5" font-size="10px" fill="#2A2C34" font-family="sans-serif"> Matrix</text><text text-anchor="middle" pointer-events="none" x="0" y="15" font-size="10px" fill="#2A2C34" font-family="sans-serif"> Reloa…</text></g><g class="node" transform="translate(30.410775924622914,193.35206038537248)"><circle class="outline" cx="0" cy="0" r="25" fill="#57C7E3" stroke="#23b3d7" stroke-width="2px"/><text text-anchor="middle" pointer-events="none" font-family="sans-serif" dy="1.5625" font-size="25" fill="#2A2C34"/><text text-anchor="middle" pointer-events="none" font-family="sans-serif" dy="1.5625" font-size="25" fill="#2A2C34"/><text text-anchor="middle" pointer-events="none" x="0" y="0" font-size="10px" fill="#2A2C34" font-family="sans-serif"> The</text><text text-anchor="middle" pointer-events="none" x="0" y="10" font-size="10px" fill="#2A2C34" font-family="sans-serif"> Matrix</text></g></g></svg>